<svg viewBox="0 0 96 96" xmlns="http://www.w3.org/2000/svg" xmlns:xlink="http://www.w3.org/1999/xlink" id="Icons_Receiver" overflow="hidden"><path d="M39.2 29.2C40 28.4 40.5 27.3 40.5 26.1 40.5 24.9 40 23.8 39.2 23L25.4 9.3C24.6 8.5 23.5 8 22.4 8 21.3 8 20.1 8.5 19.3 9.3L17.8 10.8 37.7 30.7 39.2 29.2Z" fill="#5BC5F2"/><path d="M59.3 64.5C58.9 64.9 58.3 65.1 57.8 65.1 57.3 65.1 56.7 64.9 56.3 64.5L31.5 39.8C31.1 39.4 30.9 38.8 30.9 38.3 30.9 37.8 31.1 37.2 31.5 36.8L34.6 33.8 14.7 13.9C13.4 15.2 12.2 16.4 11.4 17.2 9.4 19.1 8.2 21.6 8.1 24.3 7.8 28.8 8.9 33.1 10.4 37.3 12 41 14.1 44.5 16.4 47.8 24.6 60.1 34.9 70.8 46.9 79.3 48.9 80.8 51 82.1 53.2 83.3 58.2 85.8 63.5 87.6 69.2 88 73 88.3 76.8 86.8 79.4 84L82.1 81.3 62.3 61.4 59.3 64.5Z" fill="#5BC5F2"/><path d="M86.7 70.6 72.9 56.8C72.1 56 71 55.5 69.8 55.5 68.6 55.5 67.5 56 66.7 56.8L65.2 58.4 85.1 78.3 86.6 76.8C87.4 76 87.9 74.9 87.9 73.7 87.9 72.5 87.5 71.4 86.7 70.6Z" fill="#5BC5F2"/></svg>