<svg xmlns="http://www.w3.org/2000/svg" xmlns:xlink="http://www.w3.org/1999/xlink" width="292" height="292" viewBox="0 0 292 292"><path fill="#E5F5FD" d="M287.183 144.686c0 77.83-63.097 140.927-140.928 140.927-77.833 0-140.93-63.096-140.93-140.927 0-77.833 63.097-140.93 140.93-140.93 77.83 0 140.928 63.097 140.928 140.93"/><defs><path id="aapp" d="M-54.076 125.344c0 85.81 87.52 155.368 195.483 155.368 107.96 0 195.48-69.56 195.48-155.368 0-85.806-87.52-155.367-195.48-155.367S-54.076 39.537-54.076 125.344"/></defs><clipPath id="bapp"><use xlink:href="#aapp" overflow="visible"/></clipPath><path clip-path="url(#bapp)" fill="#153250" d="M14.762 237.477c-.548 1.794-.473 14.688 0 22.196.356 5.59 2.012 8.296 6.557 12.138 5.232 4.424 11.746 7.17 18.417 8.267 8.83 1.452 17.936.147 26.46-2.627 6.276-2.042 12.776-3.76 13.28-10.984.346-4.922.83-9.84 1.243-14.758.644-7.667-2.597-14.688-1.95-22.36l-64.008 8.13z"/><path clip-path="url(#bapp)" fill="#BC392D" d="M270.03 204.54l-3.31 40.245-39.195 2.296-11.028-33.816"/><path clip-path="url(#bapp)" fill="#F2F0E8" d="M170.274 203.643l-8.82-7.17-30.876 6.067-3.307-1.653 35.837-7.17"/><path clip-path="url(#bapp)" fill="#A89F96" d="M87.673 169.162l-16.735 142.61 188.376-23.525-72.958-121.296"/><path clip-path="url(#bapp)" fill="#FFFEF4" d="M122.063 193.044l3.767 21.935 54.675-5.395-16.54-18.745"/><path clip-path="url(#bapp)" fill="#9FB1B5" d="M215.203 214.912l4 6.647-1.74-5.334c-.723-.496-1.48-.93-2.26-1.314"/><path clip-path="url(#bapp)" fill="#A4342F" d="M217.463 216.227l1.74 5.333.903 1.502c-.23-2.17.006-4.716-1.402-5.896-.4-.336-.815-.648-1.24-.94m5.765 12.027l9.806 16.305c4.115-3.673-4.89-11.322-9.807-16.305"/><path clip-path="url(#bapp)" fill="#92887E" d="M188.287 205.002c-.427 0-.83.062-1.196.2-4.715 1.758-4.168 9.13-2.03 12.64 4.892 8.02 16.123 10.24 23.154 15.805 3.282 2.595 5.91 5.93 9.125 8.607 2.764 2.302 6.22 4.136 9.753 4.136.573 0 1.148-.047 1.726-.15 2.03-.362 3.39-.94 4.218-1.68l-9.81-16.307c-1.012-1.024-1.85-1.936-2.366-2.68-.462-.665-.652-1.553-.755-2.512l-.904-1.5-4-6.648c-4.527-2.235-9.932-2.87-14.832-4.46-2.95-.956-8.45-5.45-12.083-5.45"/><path clip-path="url(#bapp)" fill="#FFFEF4" d="M116.517 205.178l13.234 19.848 49.343-8.704-17.64-19.848M125.34 244.508l52.653-11.095 23.154 25.913c0 .55-54.58 12.68-54.58 12.68L125.34 244.51z"/><path clip-path="url(#bapp)" fill="#C5C4C0" d="M159.644 242.69l12.74 16.664-2.94.736-12.007-17.4"/><path clip-path="url(#bapp)" fill="#192E45" d="M76.912 259.4l-.902 7.5.196-.018.876-7.475c-.057-.004-.114-.005-.17-.006"/><path clip-path="url(#bapp)" fill="#92887E" d="M107.168 209.248l.527 4.75-25.345.87c-.05 3.685-.052 7.2-.323 11.724-.12 1.99-.075 5.34-.135 8.973 1.897.33 3.8.647 5.702.947l4.665-15.164c3.707-.41 7.418-.82 11.127-1.235 4.586-.507 9.328-1.362 14-1.362 1.64 0 3.275.105 4.89.367 1.4.23 2.79.59 4.176.964l-3.863-5.793c-1.745-.082-3.45-.345-5.132-.713-1.19-.248-2.367-.534-3.528-.84l.074 1.73-6.308-.465-.528-4.752zm14.85 46.506l-2.654.11c-.32.034-.645.073-.97.11-.097.367-.234.72-.425 1.038l-11.41.506s.095-.128.245-.354c-1.978 1.534-4.26 2.056-7.008 2.146-3.365.11-6.732.18-10.098.214-1.225.012-2.448.017-3.673.017-2.98 0-5.962-.034-8.943-.132l-.877 7.475 16.788-1.425 21.318-4.41 16.908 2.205s1.14.12 2.993.12c1.446 0 3.323-.074 5.433-.336l-4.167-5.397c-.387-.055-.774-.118-1.164-.187.087.044.135.065.135.065s-8.505-1.578-12.43-1.764"/><path clip-path="url(#bapp)" fill="#CFC8BB" d="M134.676 210.758c-.195 0-.39.004-.586.008-1.838.017-3.677.033-5.516.054.5 1.39 2.21 1.82 3.646 2.16 1.23.292 3.745.742 4.492 1.944.468-.28 1.103-.363 1.766-.363.86 0 1.767.14 2.41.168.118.004.237.006.356.006.553 0 1.122-.075 1.5-.46.17-.18.273-.398.32-.634-.035.025-.073.045-.112.064-.128.067-.274.1-.432.1-.03 0-.058 0-.086-.004-.027.003-.056.003-.083.003-1.498 0-4.225-2.7-5.74-2.924-.642-.098-1.29-.12-1.934-.122m-12.087 3.528l3.862 5.792c2.48.662 4.95 1.353 7.462 1.353.42 0 .84-.02 1.262-.06 1.147-.114 2.517-.65 2.622-1.802.077-.86-.617-1.567-1.12-2.273-.073-.103-.14-.218-.203-.337-.47.305-1.17.436-1.876.436h-.169c-.51 0-1.028-.07-1.457-.192-2.685-.78-5.288-2.19-8.028-2.732-.71-.14-1.435-.146-2.156-.174-.066-.004-.133-.008-.2-.01M156.666 247.31c-.068.322-.15.63-.217.892-.523 2.057-1.883 4.6-3.783 5.67-4.364 2.435-8.357 4.093-13.242 4.093-.4 0-.804-.01-1.216-.033-.904-.05-1.814-.153-2.732-.29l4.167 5.398c4.645-.574 10.405-2.056 15.102-5.666 6.057-4.665 4.137-8.144 1.92-10.064"/><path clip-path="url(#bapp)" fill="#C5C4C0" d="M155.486 244.95l11.27 16.904-3.43.982-9.804-17.887"/><path clip-path="url(#bapp)" fill="#153250" d="M80.922 196.268l25.304 4.498 1.47 13.233-29.53 1.012"/><path clip-path="url(#bapp)" fill="#214369" d="M18.01 226.495c-1.966-2.187-3.676-36.754 17.638-59.543 15.75-16.84 33.64-6.45 42.562 11.226 5.08 10.065 5.062 17.29 4.42 28.105-.457 7.76-.14 12.548-.605 20.31-.314 5.263.51 19.98-2.452 24.414-3.41 5.104-20.713 7.894-26.014 4.886-14.23-8.077-25.035-17.682-35.55-29.398"/><path clip-path="url(#bapp)" fill="#59291F" d="M91.95 127.015c.92 1.91 1.844 3.82 2.766 5.73.715 1.48 1.197 2.398 1.953 3.82.662 1.24 2.415 3.695 2.45 5.145.012.51-4.93 4.032-6.96 2.245-.83-.732-1.232-2.003-.75-2.997.277-.566.79-.978 1.152-1.495 2.114-3.03-.105-9.095-.612-12.448"/><path clip-path="url(#bapp)" fill="#663225" d="M81.722 108.627s13.66 9.68 12.006 35.042c0 0 .426 12.902-2.33 14.557-2.757 1.652-17.643 1.652-17.643 1.652-1.688 3.87-2.324 12.973-6.11 14.775-2.302 1.096-5.027.84-7.485.164-7.593-2.087-14.208-8.164-16.262-15.824 2.076-3.59 6.18-10.603 4.423-14.86-1.646-3.986-2.724-34.71 4.975-37.46 7.72-2.755 20.708-9.627 28.427 1.95"/><path clip-path="url(#bapp)" fill="#6F4F46" d="M82.69 159.61c-2.332.142-4.65.207-6.34.24.242 0 .477.004.684.01.33.004.6.01.745.01h.093c1.023-.044 3.622-.07 4.816-.26m-8.09.266c-.536.004-.844.004-.844.004-.113.26-.222.548-.327.852.1-.243.2-.476.298-.696.038-.087.39-.135.873-.16"/><path clip-path="url(#bapp)" fill="#4D2D31" d="M68.127 174.378c-.154.104-.315.197-.48.278-.826.39-1.703.61-2.605.698l2.648 2.72.437-3.696z"/><path clip-path="url(#bapp)" fill="#58271D" d="M59.916 140.903c.208 2.446.982 4.805 1.1 7.23l.03.546c.15 2.755.437 5.51.645 8.26.25 3.344.5 6.687.73 10.028.167 2.396-.157 5.515.39 8.003l.524-1.37 1.71 1.755c.9-.09 1.778-.307 2.602-.698.167-.078.326-.174.482-.278l.666-5.676 2.78-3.06c.603-1.786 1.266-3.52 1.855-4.912.104-.308.213-.59.326-.852 0 0 .308 0 .845-.004.382-.02.845-.025 1.304-.025.15 0 .3 0 .445.002 1.69-.03 4.01-.1 6.337-.242.366-.057.6-.13.616-.222-.912-.104-1.835-.143-2.75-.21-.79-.053-1.59-.108-2.354-.318-.52-.145-1.017-.354-1.51-.567-1.658-.706-3.522-1.273-5.04-2.21-1.412-.872-2.706-2.082-4.02-3.093-2.04-1.568-3.942-3.433-5.072-5.743-.985-2.02-2.448-4.05-2.642-6.344"/><path clip-path="url(#bapp)" fill="#060606" d="M90.876 132.273c-.038.683-.628 1.158-1.317 1.06-.692-.095-1.22-.728-1.185-1.41.04-.682.628-1.157 1.32-1.06.69.095 1.218.728 1.18 1.41"/><path clip-path="url(#bapp)" fill="#663225" d="M93.667 241.244s22.9 5.936 29.046 2.23c4.226-2.542 8.862-5.075 13.844-5.643 2.48-.276 5.387-1 7.678.27.94.525 1.43 1.616 2.322 2.14 1.126.657 1.56.353 2.586.62 2.155.56 3.777 1.08 4.99 3.294.076.133 1.985.222 2.457 1.037.47.81.074 2.157-.142 3.01-.522 2.057-1.882 4.6-3.78 5.67-4.72 2.638-9.008 4.358-14.46 4.06-5.25-.287-10.8-2.398-16.013-2.184l-29.833 1.233s-5.155-10.644 1.305-15.736"/><path clip-path="url(#bapp)" fill="#153250" d="M48.804 202.385c-.11 2.346-.03 4.703.235 7.035.25 2.214.554 4.46 1.39 6.54.724 1.805 1.777 3.738 2.848 5.388 1.582 2.442 3.732 4.6 5.896 6.563 1.596 1.45 3.482 2.53 5.5 3.285 2.07.778 4.104 1.597 6.188 2.36 3.007 1.103 6.12 1.9 9.257 2.537 2.34.472 4.698.854 7.06 1.197 2.327.336 5.04.293 7.284.97-.026-.01-29.408-8.825-34.552-16.91-1.702-2.674-3.755-4.98-5.432-7.642-1.743-2.77-3.316-5.695-4.228-8.855-.492-1.705-1.37-4.185-1.142-5.975-.15 1.165-.25 2.334-.306 3.507"/><path clip-path="url(#bapp)" fill="#214369" d="M60.924 230.14c.568.847 11.03 3.34 11.913 3.572 2.336.613 4.718 1.062 7.09 1.497 5.555 1.02 11.142 1.858 16.73 2.65 3.04.428 8.315.158 10.126 2.906.58.88.852 1.924 1.114 2.946.948 3.708 3.884 8.022.817 11.525-2.393 3.058-5.238 3.952-8.918 4.072-3.365.11-6.732.183-10.098.213-6.384.057-12.78-.014-19.153-.436-4.95-.325-10.51-.293-15.045-2.452-21.577-10.272-20.944-16.104-20.944-16.104l26.368-10.39z"/><path clip-path="url(#bapp)" fill="#BB3B32" d="M146.77 240.455l-16.11-9.253s-3.275-1.918-4.096 1.916l15.824 9.09c2.178.097 4.187-.397 4.383-1.753"/><path clip-path="url(#bapp)" fill="#153250" d="M26.52 214.747c.482 12.48 4.396 25.602 12.81 32.334-6.35-5.08-13.068 10.385-17.398 5.424-1.44-1.65-6.947-6.64-7.168-8.82-1.223-12.136.73-29.244 2.207-41.355 1.15-9.422 5.624-20.598 12.01-27.715 5.413-6.03 6.21-7.482 15.164-16.153.78 1.537 1.56 3.074 2.337 4.613.264.52.534 1.063.534 1.646 0 .636-.32 1.22-.638 1.77-9.076 15.698-20.59 29.112-19.855 48.257"/><path clip-path="url(#bapp)" fill="#AF7260" d="M228.687 152.083c2.874-3.75 1.438-3.725-.956-3.696-1.293.016-2.87.03-4.19-.555-2.273-1-3.514-3.293-4.666-5.382-2.233-4.047-3.8-9.086-5.46-14.935-.932-3.285-1.013-5.832-1.498-9.217 0 0-2.766-14.224 8.644-22.922 11.41-8.7 37.686-6.652 32.652 12.802 0 0 14.596-1.164.773 19.697.862 6.915-.083 15.165 5.69 20.034 4.028 3.4 1.63 5.735-.57 10.743-1.993 4.543-4.324 8.937-6.95 13.145-5.047 8.097-11.206 15.502-18.272 21.915-.737.668-1.54 1.355-2.523 1.535-1.88.34-3.516-1.265-4.663-2.793-5.737-7.66-12.116-23.334-7.726-32.945 1.9-4.17 5.18-3.415 8.22-6.024.622-.538 1.16-.965 1.497-1.403"/><path clip-path="url(#bapp)" fill="#986156" d="M225.47 154.46c-6.27 3.562-2.61 7.7-2.663 11.787-.082 6.097 4.014 11.022 7.698 15.876-.23-8.056-.28-16.75 4.374-23.333 4.105-5.8 11.375-9.132 14.36-15.582 1.387-2.99 1.688-6.35 1.97-9.63-.617 4.67-6.927 8.054-10.524 9.994-3.48 1.873-8.923 2.2-11.77 4.855-.133.122 3.904 1.847-3.447 6.032"/><path clip-path="url(#bapp)" fill="#986156" d="M228.215 147.908c-2.324-.292-5.396-3.963-5.396-7.64 0 0 3.79-2.5 4.294-3.007-.476.613-5.913 0-6.083-.76-.052-.24-.758-2.13-.758-2.62 2.258-1.65 3.724-3.566 3.97-4.058-.522.524-1.04-.558-1.564-1.642-.455-.943-.915-1.888-1.387-1.768-1.143.287-1.91.526-2.394.52-.23-.494-.433-1.047-.604-1.645.033-.252.074-.53.13-.854.775-4.482-1.157-8.155-.437-12.63.93-5.802 5.146-8.978 8.16-13.64-1.61.093-3.227.697-4.866.685-1.27-.008-2.62-.764-3.848-.674-2.89.21-3.627 3.01-4.42 5.547-1.944 6.244-1.64 13.406-.406 19.73.123.62.263 1.232.424 1.842 1.264 4.763 2.675 9.523 4.546 14.082 1.188 2.896 1.73 6.536 4.806 8.084 3.14 1.583 7.1.872 10.648.534-.352-.035-1.02-.022-1.775-.014-1.043.016-2.255.027-3.04-.07"/><path clip-path="url(#bapp)" fill="#BC392D" d="M280.586 195.54c.204-4.455.158-8.925-.01-13.272-.31-8.01-.587-18.897-6.045-25.422-2.822-3.37-10.465-7.732-14.892-5.636-2.475 1.175-3.27 3.87-4.143 6.187-1.215 3.21-2.797 5.883-5.274 8.315-2.43 2.384-5.266 4.31-8.106 6.187-5.665 3.742-15.534 2.5-17.363-4.637-1.164-4.545-1.1-8.115 1.774-13.44.067-.122-12.36 1.985-14.516 2.967-7.268 3.3-12.467 9.092-14.814 16.753-2.055 6.714-3.37 12.514.417 18.187 4.437 6.652 13.6 12.146 20.496 15.803 5.95 3.157 12.34 5.55 17.865 9.405 8.698 6.066 15.508 15.818 25.924 17.8 1.04.196 2.153.3 3.12-.122.595-.26 1.09-.7 1.562-1.145 10.115-9.557 13.352-23.675 14.01-37.93"/><path clip-path="url(#bapp)" fill="#473833" d="M214.406 120.453c-.028 0-.055.002-.083.005-.412.056-.692.51-.63 1.013.063.473.4.822.78.822.027 0 .055-.003.08-.007.413-.055.694-.508.63-1.014-.058-.468-.4-.817-.777-.817"/><path clip-path="url(#bapp)" fill="#3F322E" d="M225.48 119.693c-.04 0-.086.002-.13.01-.532.07-.91.56-.845 1.09.062.488.48.84.957.84.044 0 .087-.003.134-.01.532-.07.91-.56.842-1.09-.062-.486-.477-.84-.957-.84"/><path clip-path="url(#bapp)" fill="#AF7260" d="M218.416 114.368c-1.2.336-1.796 7.982-1.932 9.058-.162 1.282-1.095 6.056.14 6.992.542.408 1.286.23 1.963.245 2.157.043 5.88-.734 6.305-.983-2.195.013-4.21-15.78-2.9-15.958l-3.576.646z"/><path clip-path="url(#bapp)" fill="#BC392D" d="M217.62 232.01c2.856-1.9 6.6-2.59 9.15-4.99 3.093-2.905 3.503-7.625 4.636-11.6.23-.81.463-1.666.26-2.488-.238-.98-1.048-1.702-1.83-2.34-4.454-3.617-9.462-6.55-14.798-8.66-7.15-2.825-9.4-5.14-9.33-12.767.065-6.863.07-13.963 2.52-20.482.45-1.193 8.568-11.72 7.226-12.574-5.13.776-9.887 3.67-14.578 9.76-2.333 3.025-3.928 5.59-5.452 9.1-3.145 7.242-5.897 14.66-9.138 21.86-1.53 3.4-3.097 7.135-2.178 10.75 1.28 5.043 7.24 7.89 11.02 10.895 5.564 4.426 11.13 8.85 16.693 13.274.73.58 1.512 1.183 2.437 1.317 1.184.176 2.326-.45 3.363-1.056"/><path clip-path="url(#bapp)" fill="#A3262D" d="M213.045 159.91c3.598-2.294 12.507-4.1 12.634-4.48 0 .255 2.98-3.32 3.085-3.507-17.24.126-26.143 8.29-32.58 21.762 4.49-4.99 8.114-8.2 16.86-13.776M260.836 200.63c-.046-1.148-.106-2.3-.142-3.447-.177-5.92.253-11.857 1.28-17.688-3.06 9.09-7.492 17.717-13.102 25.498-1.47 2.044-3.068 4.067-5.195 5.41-3.49 2.2-9.573 2.256-13.48 1.267-5.105-1.294-8.05-4.208-11.982-7.303-.07-.054-.14-.114-.208-.183-5.138-5.27-8.42-13.068-9.505-20.273.19 1.265-1.723 3.905-2.09 5.205-.518 1.817-.402 3.76-.843 5.63-.424 1.796-1.237 3.544-2.59 4.797-1.315 1.22-3.038 1.884-4.717 2.52 3.057-1.158 7.987 1.403 10.648 2.616 3.273 1.494 5.355 4.124 7.875 6.657 1.492 1.5 6.325 6.018 3.487 7.958-2.853 1.945-6.615 1.81-8.742 4.948-1.183 1.752-1.148 4.078-.29 5.957.44.966 1.106 1.85 1.964 2.485 1.272.946 1.796.42 3.146-.116 2.315-.923 2.403-3.06 4.07-4.44.84-.696 6.075-.472 5.9.393.754-3.702 4.343-5.2 7.78-5.525 5.58-.532 10.05-1.402 15.268-3.66 5.178-2.243 10.668-4.607 16.26-3.855-2.075-.28-4.57-4.598-4.968-6.452-.36-1.682.25-3.886.245-5.627 0-.924-.03-1.85-.07-2.77"/><path clip-path="url(#bapp)" fill="#35161E" d="M81.17 96.616c2.435-.48 5.172.37 7.084 2.04 2.527 2.21 3.818 5.532 4.423 8.833.085.468.158.947.1 1.42-.12.957-.757 1.764-1.442 2.44-4.037 3.998-10.677 5.07-15.767 2.547.126 2.895-2.927 5.468-5.76 4.854.284 3.106 1.987 15.02-1.5 16.403-.633.25-1.403.327-1.805.875-.43.585-.333 1.583-1.004 1.858-.782.32-1.372-.747-1.547-1.573-.635-2.99-.855-9.637-5.028-10.372-3.543-.623-4.63 2.43-4.838 5.568-.17 2.595.348 5.197.203 7.792-.26 4.678-3.708 7.576-6.296 11.48.436-3.987-1.035-6.204-2.942-9.732-1.146-2.122-3.662-5.703-3.52-8.063.02-.365.063-.78-.187-1.048-.17-.183-.432-.238-.673-.307-1.842-.52-3.246-2.314-3.307-4.228-.064-1.913 1.22-3.794 3.025-4.434-2.217-.766-4.666-1.733-5.636-3.87-1.05-2.317.087-5.015 1.412-7.188.64-1.05 1.368-2.11 2.44-2.71 1.077-.6 2.59-.583 3.393.35.423-2.935 4.974-8.81 7.724-10 .403-.176 4.327-.816 4.218.143.264-2.32 3.003-3.706 5.32-3.37 2.336.336 4.29 1.877 6.122 3.362.42-3.02 2.967-5.62 5.977-6.102 3.013-.483 6.245 1.19 7.59 3.925.684-.445 1.437-.737 2.22-.892"/><path clip-path="url(#bapp)" fill="#A3262D" d="M269.54 230.14c-4.587 4.414-10.04 5.524-15.897 7.647-2.89 1.05-5.807 1.565-8.624 1.312-3.22-.296-6.34-1.555-8.882-3.546-2.814-2.206-4.34-4.046-8.354-3.963-.113.004-.246.016-.312.106-.087.113-.024.276.037.4 1.466 2.98.984 4.743 2.45 7.722.723 0 5.426 8.946 6.054 9.854 5.904 1.585 12.162 1.906 18.18.896 3.105-.524 8.22-1.677 12.648-3.313.214-6.9.773-10.536 2.697-17.116"/><path clip-path="url(#bapp)" fill="#231F20" d="M188.004 259.134c.246-.075.373-.11.62-.186-.097-.1-.143-.15-.238-.247.58-.164.87-.242 1.444-.395.944-.248 1.227-.656.86-1.04-.248-.262-.726-.422-1.302-.43.27-.058.4-.082.67-.142-.243-.247-.36-.37-.6-.616l-.68.13.22.23c-.928.185-1.393.28-2.328.49-.093-.094-.14-.142-.23-.236-.264.06-.393.086-.66.147.358.364.536.547.903.925.257-.065.387-.097.646-.16l-.23-.237c.542-.13.813-.19 1.355-.31.63-.14 1.14-.033 1.402.238.235.245.062.44-.484.576-.57.14-.856.214-1.432.365-.09-.095-.137-.143-.23-.238-.254.067-.38.1-.64.166.37.38.553.573.934.97m-.43-2.732c1.107-.227 1.543-.77 1.054-1.27-.485-.494-1.726-.76-2.87-.576-1.136.175-1.577.745-1.047 1.28.532.54 1.774.784 2.863.567m-.42-.428c-.71.134-1.434.04-1.74-.273-.306-.31.032-.607.757-.73.73-.12 1.447-.01 1.736.282.29.297-.036.583-.753.72m-4.193-2c.347.354.52.53.866.88l.687-.115c-.09-.092-.132-.138-.223-.226 1.267-.21 1.9-.3 3.158-.484-.243-.244-.365-.37-.61-.622l-.72.1.225.227c-.983.137-1.476.21-2.462.365-.09-.094-.133-.14-.226-.234-.275.043-.416.066-.694.113m5.61-.078c.33-.047.452-.185.324-.312-.124-.13-.466-.215-.8-.17-.337.046-.455.195-.327.326.13.13.462.202.802.155m-3.766-1.44c.28-.033.522.063.654.202.158.16.13.326-.18.438.107.106.16.16.263.268.444-.062.666-.09 1.107-.15l-.235-.242-.343.004c.13-.11.188-.256.004-.445-.31-.32-1.003-.536-1.733-.444-.805.097-.82.397-.712.73.102.303.135.42-.18.466-.28.04-.55-.06-.73-.247-.2-.207-.1-.4.277-.49-.113-.118-.17-.18-.286-.298-.505.063-.758.1-1.26.17.1.105.15.158.252.26.15-.005.226-.01.374-.02-.154.13-.206.298.035.546.437.447 1.185.56 1.843.465.704-.103.815-.35.656-.8-.098-.268-.078-.377.194-.413m-4.31-1.044l.847.892c.283-.04.423-.06.707-.096-.088-.093-.13-.14-.216-.226.655-.09.98-.127 1.637-.21 1.074-.125 1.436-.46 1.062-.86-.256-.27-.775-.474-1.4-.53l.735-.085c-.252-.27-.38-.406-.633-.69-.294.034-.442.052-.736.084.092.102.138.15.23.25-1.007.115-1.514.17-2.523.298-.092-.1-.136-.147-.227-.248-.286.033-.427.05-.71.087.345.383.52.57.864.94.283-.036.423-.054.708-.088-.087-.1-.133-.146-.222-.24.595-.077.89-.11 1.485-.18.69-.08 1.244.072 1.506.352.24.256.027.415-.585.486-.64.078-.96.117-1.602.2l-.217-.23c-.28.036-.423.054-.705.093m.374-1.63c1.353-.122 2.084-.58 1.482-1.27-.528-.607-1.813-.985-2.993-.84-1.178.146-1.7.692-1.092 1.386.362.412.83.603 1.364.74l.316-.326c-.37-.1-.707-.24-.934-.498-.326-.372-.093-.638.478-.75.556.644.83.956 1.377 1.56m.226-.552c-.378-.426-.57-.645-.952-1.095.625-.033 1.206.152 1.476.463.285.328.022.555-.524.632m.684-1.7c1.266-.148 1.437-.753.82-1.527-.485-.608-.73-.92-1.217-1.575-.277.046-.415.065-.694.11.103.138.153.206.258.343-1.856.278-2.804.4-4.683.69l-.25-.322c-.28.043-.42.067-.703.11.396.52.593.768.99 1.26.282-.042.424-.06.708-.1-.122-.154-.18-.23-.303-.382.642-.093.963-.137 1.602-.226.192.243.288.364.48.602.602.75 1.667 1.18 2.99 1.02m-.454-.547c-.82.104-1.416-.136-1.784-.596-.187-.233-.28-.35-.465-.587.91-.125 1.365-.185 2.264-.315.192.244.287.362.475.598.37.468.297.805-.49.9M179.14 252.97c-.522-.548-1.8-.827-2.96-.598-1.16.23-1.665.828-1.044 1.498.37.395.835.55 1.363.644.116-.155.176-.23.295-.378-.37-.07-.7-.184-.932-.433-.328-.353-.108-.646.45-.804.555.59.83.883 1.393 1.474 1.32-.263 2.03-.78 1.434-1.405m-1.232.806c-.384-.403-.574-.605-.955-1.013.618-.08 1.193.055 1.462.34.28.297.03.546-.507.673m-1.833-2.75c.282-.05.528.055.67.207.164.18.14.365-.167.505.11.117.163.178.272.296.447-.082.673-.123 1.124-.198-.1-.104-.152-.16-.253-.27-.138.004-.207.008-.346.013.13-.134.184-.296-.014-.513-.326-.352-1.035-.576-1.76-.45-.805.14-.813.486-.69.864.107.342.148.474-.168.543-.278.06-.544-.04-.73-.245-.207-.23-.11-.454.264-.578-.12-.133-.18-.196-.295-.326-.497.102-.74.152-1.232.265l.25.287c.15-.02.225-.027.373-.045-.15.154-.197.35.046.618.44.493 1.188.584 1.847.44.702-.148.807-.435.633-.933-.108-.308-.09-.435.18-.48m-4.305-1.005c.346.4.52.6.864.99.275-.062.413-.093.69-.15-.09-.105-.136-.153-.226-.256 1.27-.27 1.915-.386 3.21-.59-.26-.292-.392-.44-.653-.74-.29.044-.437.072-.728.12.094.107.14.162.233.27-.997.17-1.49.26-2.476.47-.09-.105-.135-.158-.23-.263-.27.06-.407.087-.683.15m5.7-.148c.347-.05.466-.21.326-.366-.137-.16-.498-.27-.84-.218-.353.052-.465.228-.325.385.14.154.49.248.84.198m-2.82-.8c.07.083.106.125.176.204.29-.05.437-.07.728-.118-.285-.333-.43-.498-.715-.836-.283.045-.426.067-.707.118l.207.245c-.654.004-.98.01-1.628.023-.315.006-.882.05-.882.05s.47-.16.684-.264c.715-.334 1.074-.492 1.797-.807l-.212-.26c-.99-.027-1.485-.035-2.46-.035-.322-.007-.87.054-.87.054s.496-.177.682-.262c.484-.224.727-.33 1.21-.543.09.11.134.166.22.274.282-.05.42-.075.705-.122-.316-.396-.474-.598-.787-1.003-.287.053-.43.08-.717.135.072.09.107.137.18.23-1.063.487-1.59.738-2.63 1.27.12.154.183.23.305.385.84-.026 1.266-.034 2.12-.034.25.005.87-.018.87-.018s-.5.18-.666.264c-.622.286-.934.436-1.547.742.13.152.19.228.32.38 1.425-.062 2.152-.075 3.616-.072"/><path clip-path="url(#bapp)" fill="#51C8F2" d="M178.538 239.478c-1.404-.527-2.103-.794-3.475-1.3-.156.318-.236.472-.396.78.612.22.92.333 1.54.558-1.467.368-2.213.542-3.7.91-.1.215-.427.604-.427.604.013.033.656.148.963.262 1.5-.342 2.256-.5 3.736-.844-.227.427-.342.634-.575 1.034.435.148.652.223 1.09.377.52-.895.77-1.365 1.243-2.382"/><path clip-path="url(#bapp)" fill="#8FC54B" d="M176.896 242.522c-.443-.146-.662-.22-1.1-.366-.238.39-.362.582-.604.956-.117-.164-.174-.246-.287-.412-.412-.605-1.032-1.098-1.862-1.41-1.08.248-1.62.372-2.69.643 1.286-.32 2.72.156 3.305 1.013.11.16.168.244.28.402-.677-.21-1.014-.312-1.68-.512-.165.254-.247.38-.415.63 1.454.42 2.198.646 3.693 1.102.554-.78.83-1.184 1.36-2.046"/><path clip-path="url(#bapp)" fill="#0DA452" d="M173.044 241.29c-.308-.115-.795-.315-.964-.26-.29.09-.992.716-1.73.902 1.074-.27 1.614-.394 2.694-.64"/><path clip-path="url(#bapp)" fill="#F69433" d="M172.336 238.507c-.102-.182-.15-.275-.25-.458.606.208.912.315 1.53.532.164-.31.242-.468.403-.79-1.368-.5-2.044-.74-3.353-1.18-.578 1.116-.87 1.64-1.446 2.647.406.12.61.18 1.022.31.26-.457.39-.685.65-1.16.097.176.145.27.242.444.528.957-.022 1.916-1.298 2.26 1.062-.287 1.596-.422 2.67-.688.275-.586.204-1.236-.17-1.92"/><path clip-path="url(#bapp)" fill="#CC6B35" d="M172.508 240.427c-1.074.266-1.607.4-2.67.687.728-.195 1.872.032 2.242-.084.133-.044.326-.39.428-.603"/><path clip-path="url(#bapp)" fill="#07683A" d="M172.08 241.03c-.734-.137-1.514-.112-2.242.083-1.56.423-2.332.646-3.834 1.152.192.302.286.452.482.75 1.514-.48 2.294-.69 3.865-1.083.737-.186 1.33-.496 1.73-.903"/><path clip-path="url(#bapp)" fill="#E9E7D7" d="M168.944 204.717l-10.048-9.31-22.786 7.105-2.205-.98 25.973-8.085"/><path clip-path="url(#bapp)" fill="#7A1A32" d="M259.045 103.245c-2.467-5.788-6.9-12.962-14.178-12.25-.25.025-.512.058-.753-.018-.273-.085-.485-.3-.697-.497-3.86-3.65-9.747-3.072-14.524-1.994-4.938 1.112-9.908 3.214-13.693 6.645-2.963 2.69-10.52 13.496-6.247 17.526.94.885 2.248 1.235 3.5 1.546 5.107 1.268 10.366 2.414 15.597 1.828 3.548-.396 11.252-2.83 11.693-7.43-.34 3.557.05 7.183 1.144 10.584.67 2.083 1.603 4.1 1.922 6.265.238 1.644.115 3.32-.01 4.978-.59 7.922-5.604 26.442 6.047 28.805 5.312 1.077 9.423-1.82 14.562-2.35 1.528-.157 3.072-.173 4.604-.287 1.168-.087 2.326-.23 3.486-.374 1.856-.234 2.645-.67 3.157-2.39.525-1.744.91-3.497.874-5.33-.076-3.732-1.847-7.05-4.186-9.864-4.463-5.37-6.597-11.563-8.576-18.31-1.63-5.557-1.494-11.847-3.723-17.083"/><path clip-path="url(#bapp)" fill="#684136" d="M122.954 255.73c-.253 0-.506.01-.757.016l-.178.008c3.925.187 12.43 1.765 12.43 1.765s-.047-.022-.134-.066c-3.792-.66-7.655-1.723-11.362-1.723m-3.59.135l-.95.038c-.008.024-.012.048-.02.07.325-.035.648-.075.97-.108"/><path clip-path="url(#bapp)" fill="#58271D" d="M118.447 252.435c.124.738.284 2.185-.034 3.47l.95-.04c.707-.073 1.397-.125 2.046-.125.12 0 .243.002.364.007.08 0 .16.005.245.008l.177-.008c.25-.007.504-.015.757-.015 3.707 0 7.57 1.062 11.36 1.723-1.143-.56-9.325-4.497-13.423-4.725-.902-.05-1.718-.158-2.443-.295"/><path clip-path="url(#bapp)" fill="#C5C4C0" d="M157.183 198.837l15.683 15.682-3.43.49-14.212-15.93M153.243 199.963l13.555 16.24-2.246.606-13.278-16.715M156.396 210.59l-7.967-9.545c-.553.18-1.11.352-1.665.524l7.495 9.433c.718-.107 1.43-.247 2.136-.412"/><path clip-path="url(#bapp)" fill="#FFF" d="M41.91 160.544l2.662-6.468 19.142 15.974.12 11.884c-.002 0-19.01-8.476-21.924-21.39"/><path clip-path="url(#bapp)" fill="#663225" d="M108.747 205.822c.165-.065.265-.654.435-.7 4.022-1.09 8.124-1.617 12.16-2.656 1.822-.473 3.663-.94 5.544-1.01 2.022-.075 14.157.84 12.994 4.59.195-.63 3.476 4.272 3.593 5.066.14.946.16 2.15-.69 2.592-1.34.7-4.498-2.576-6.174-2.825-.89-.132-1.79-.124-2.687-.114-1.84.017-3.68.033-5.518.054.5 1.39 2.21 1.82 3.648 2.16 1.253.3 3.84.76 4.53 2.014 1.28 2.318-1.867 2.712-3.61 2.208-2.684-.78-5.284-2.19-8.027-2.735-.71-.137-1.435-.143-2.156-.17-4.72-.186-9.142-1.702-13.61-3.086-.072-.02-1.23-4.723-1.006-4.996.147-.185.35-.305.573-.392"/><path clip-path="url(#bapp)" fill="#7A5347" d="M136.71 214.924c-.024.015-.05.03-.077.05-.016.01-.028.02-.043.028.482.885.32 1.49-.157 1.865.012.033.028.06.042.09.577-.37.807-1 .277-1.964-.01-.023-.026-.045-.04-.07"/><path clip-path="url(#bapp)" fill="#724B40" d="M134.593 210.758c-.223 0-.447.004-.67.008-1.84.017-3.68.033-5.52.054.504 1.39 2.21 1.82 3.65 2.16 1.25.3 3.84.76 4.53 2.014.004.002.005.006.005.01l.045-.03.078-.05c-.745-1.2-3.262-1.65-4.49-1.943-1.437-.34-3.145-.77-3.646-2.16 1.84-.02 3.678-.036 5.516-.053.195-.004.39-.007.586-.008-.028-.002-.053-.002-.083-.002m1.838 6.11c-.446.355-1.174.515-1.915.525h.084c.704 0 1.405-.13 1.875-.436-.015-.027-.03-.057-.044-.09"/><path clip-path="url(#bapp)" fill="#7A5347" d="M143.51 211.404c.084.754.05 1.596-.423 2.077-.005.052-.013.107-.024.16.565-.374.68-1.126.643-1.865-.005-.11-.074-.234-.195-.37"/><path clip-path="url(#bapp)" fill="#724B40" d="M143.087 213.48c-.086.087-.188.165-.304.224-.105.06-.223.087-.35.1h.087c.158 0 .303-.032.432-.1.04-.02.077-.04.11-.064.012-.052.02-.108.025-.16"/><path clip-path="url(#bapp)" fill="#684136" d="M113.925 212.666l.002.067c1.164.304 2.34.592 3.53.84-1.186-.26-2.362-.57-3.532-.907"/><path clip-path="url(#bapp)" fill="#58271D" d="M130.73 206.7c-.618 0-1.24.05-1.872.163-1.2.215-2.343.67-3.478 1.118-1.83.722-3.7 1.435-5.66 1.59-.232.018-.468.025-.7.025-1.75 0-3.527-.515-4.762-1.733-.207-.203-.395-.42-.57-.65l.237 5.454c1.17.338 2.345.647 3.532.907 1.798.373 3.632.647 5.5.722.724.028 1.45.034 2.156.174 2.74.54 5.342 1.95 8.03 2.73.404.117.887.186 1.372.193.74-.01 1.47-.17 1.918-.526.48-.376.64-.98.157-1.865-.002-.003-.003-.007-.007-.01-.69-1.252-3.278-1.714-4.53-2.013-1.438-.342-3.147-.772-3.65-2.16 1.84-.02 3.68-.038 5.518-.055.226-.004.45-.008.673-.008H134.762c.674 0 1.348.02 2.013.12 1.49.22 4.143 2.823 5.658 2.922.126-.01.244-.04.35-.097.116-.06.217-.136.303-.223.475-.48.506-1.32.424-2.077-1.018-1.12-5.67-2.94-6.51-3.272-1.22-.483-2.462-.9-3.726-1.16-.837-.17-1.685-.27-2.545-.27m3.92 10.633c-.753 0-1.508-.132-1.508-.132-1.224-.6.377-2.443.377-2.443.087-.01.172-.012.258-.012 1.708 0 2.76 1.562 2.276 2.21-.22.296-.812.378-1.403.378"/><path clip-path="url(#bapp)" fill="#733D31" d="M133.78 214.745c-.085 0-.172.005-.26.012 0 0-1.6 1.843-.377 2.444 0 0 .755.133 1.51.133.59 0 1.18-.082 1.403-.378.483-.643-.57-2.21-2.277-2.21"/><path clip-path="url(#bapp)" fill="#FFF" d="M72.802 164.292l-4.007 4.41 4.41 8.82 2.756-5.512"/><path clip-path="url(#bapp)" fill="#FFF" d="M63.334 173.6l4.358 4.475 1.103-9.372 4.41 3.307-4.32 8.446-7.258-2.38M106.226 200.766l7.226 1.016.55 12.676-6.307-.46"/><path clip-path="url(#bapp)" fill="#69142E" d="M257.033 99.95c-.125-.26-.477-1.44-.633-1.65 3.582 4.772 4.447 10.695 5.342 16.43.986 6.333 2.74 12.01 5.625 17.734 1.062 2.107 2.433 4.025 3.898 5.87 1.387 1.74 2.952 3.2 3.6 5.342 1.055 3.477 1.224 7.16.12 10.65-.67 2.114-1.37 2.094-3.493 2.48-1.98.36-3.83.58-5.81.336-2.038-.25-4.17-.478-6.128.302 1.132-.908 2.265-1.817 3.398-2.723.478-.386.958-.77 1.357-1.238.524-.618.887-1.357 1.215-2.102 1.777-4.047 2.016-9.677-.31-13.554-3.316-5.525-6.104-12.212-6.497-18.69-.212-3.486-.036-6.98-.13-10.47-.066-2.31-.397-6.336-1.555-8.717"/><path clip-path="url(#bapp)" fill="#862243" d="M208.57 112.783c-1.09-1.4-1.938-2.338-2.008-4.29-.083-2.16.775-4.286 1.796-6.146 1.774-3.23 3.82-4.66 6.59-6.962-1.258 1.045-2.465 4.978-2.917 6.464-.645 2.127-.906 4.066.13 6.21 3.293 6.846 7.982 7.733 7.982 7.733s-8.845.486-11.572-3.01M242.8 130.428s-3.495 14.013-1.292 21.182c2.205 7.166 6.904 8.425 10.582 7.793 0 0-11.86-6.603-9.29-28.975"/><path clip-path="url(#bapp)" fill="#AF7260" d="M229.59 231.028c1.745 1.94 3.54 4.047 4.502 6.5.614 1.56 1.18 4.9-.207 6.28-.503.502-1.32.578-2.004.376-.682-.205-1.266-.64-1.833-1.072.09.473-.324.934-.798 1.036-.475.102-.967-.073-1.38-.323-2.04-1.237-2.503-3.976-4.053-5.782.908 2.69.415 3.07-.15 3-1.31.552-2.858-2.92-4.18-4.447-1.464-1.687-2.563-3.03-3.576-5.097-.358-.732-2.605-2.614-2.964-3.344-.64-1.307-.356-2.352.46-3.547 3.233-4.73 6.278-2.048 8.28-.813 2.88 1.782 5.445 4.5 7.904 7.23"/><path clip-path="url(#bapp)" fill="#986156" d="M215.028 230.755l-2.08-2.6s-2.08-2.6 2.308-5.91c0 0 1.148-.9 3.23-.192 0 0-3.92 2.793-3.458 5.394.462 2.6 2.9 7.445 2.9 7.445l-2.9-4.137z"/><path clip-path="url(#bapp)" fill="#D1CBCA" d="M107.194 209.222l.5 4.777 6.31.458-.09-1.562"/><path clip-path="url(#bapp)" fill="#FFF" d="M117.97 257.013c1.07-2.748.177-6.392-.362-9.172-.133-.692-1.25-6.577-1.92-6.675-.19-.026-9.254-1.012-9.254-1.012 5.326 12.294.128 17.365.128 17.365l11.408-.505z"/><path clip-path="url(#bapp)" fill="#8E7066" d="M118.35 251.94l-.012.003c.02.16.037.32.053.482.02.002.038.005.057.01-.052-.308-.097-.495-.097-.495"/><path clip-path="url(#bapp)" fill="#A39C97" d="M118.395 255.975l-.12.016c-.077.353-.177.694-.305 1.023.19-.32.327-.67.425-1.038"/><path clip-path="url(#bapp)" fill="#90786E" d="M118.413 255.903l-.123.005c-.004.03-.01.055-.016.082l.12-.016.02-.07"/><path clip-path="url(#bapp)" fill="#8A6A61" d="M118.39 252.426c.12 1.192.127 2.384-.1 3.482l.123-.005c.32-1.284.157-2.73.034-3.47l-.056-.007"/><path clip-path="url(#bapp)" fill="#6F7588" d="M108.595 252.955l-.006.002c-.005.03-.008.063-.012.1.005-.036.01-.07.017-.102"/><path clip-path="url(#bapp)" fill="#A39C97" d="M106.943 257.057l-.14.11c-.148.225-.243.352-.243.352s.155-.15.383-.463"/><path clip-path="url(#bapp)" fill="#6F7588" d="M108.285 254.25c-.414 1.227-1.112 2.36-1.48 2.916l.14-.11c.367-.5.926-1.424 1.34-2.807"/><path clip-path="url(#bapp)" fill="#D1CBCA" d="M118.338 251.943l-9.743 1.012-.018.1c-.056.395-.16.797-.294 1.194-.413 1.382-.972 2.306-1.34 2.807-.228.314-.383.462-.383.462l11.41-.507c.128-.33.228-.67.304-1.022.005-.026.012-.052.016-.08.225-1.1.22-2.29.1-3.483-.015-.164-.034-.324-.052-.484M68.793 168.703l1.26 9.46 1.648-3.423"/></svg>
