<svg xmlns="http://www.w3.org/2000/svg" width="300" height="219" viewBox="0 0 300 219"><path fill="#ECF8FD" d="M47.24 217.558h210.25c.516 0 1.002.046 1.474.11 24.495-37.242 35.216-102.21 14.533-137.494-27.084-46.21-81.19-63.786-132.215-54.497C81.177 36.623 15.852 64.86 12.178 134.103 10.22 171.183 24.54 198 47.234 217.558h.005z"/><path fill="#D78235" d="M78.444 69.933s-28.067 8.3-30.003 66.222c-.61 18.334 3.904 34.04 19.28 38.602 15.373 4.562 19.126.742 10.534-14.07-8.08-13.932-7.482-25.857-7.482-25.857l7.672-64.897z"/><path fill="#20385D" d="M106.793 218.824l.973-9.314.677 9.314h36.344l1.198-20.62.54-27.657-75.89-10.565.005 58.842"/><path fill="#1E2F51" d="M124.037 218.824h19.99l2.498-48.277H124.46l-42.68 9.64s37.296 6.45 37.836 7.958c.203.574 2.123 14.123 4.42 30.68z"/><path opacity=".29" fill="#20385D" d="M106.2 218.824l.33-5.3-.75 5.3"/><path fill="#EB9433" d="M135.76 61.415s16.683 7.045 19.916 9.055c3.23 2.008 9.15 7.037 9.15 7.037l3.768 21.125 5.92 59.843s0 22.63-1.617 23.133c-1.61.506-9.148 6.037-9.148 6.037l-11.306-58.334-2.69-15.09s.54 23.634 2.155 30.68c1.61 7.036 3.23 23.634-5.385 25.647-8.613 2.008-48.658 7.766-48.658 7.766l-19.318-3.56s-11.144-10.745-11.68-16.778c-.538-6.04 4.304-32.695 4.304-32.695l.542-27.152 2.203-26.783 12.866-3.893 30.138-6.535 18.837.498z"/><path fill="#E1C1BE" d="M127.04 63.825s-15.23 20.388-30.727 6.004l-.247-7.044.91-9.647L126.5 51l.54 12.825z"/><path fill="#D2AAA8" d="M128.158 45.97l-9.293 11.256-8.694 1.094c-.206.222-.412.44-.632.654-.055.063-.103.132-.156.195-1.016 1.184-2.247 2.157-3.523 3.067l2.867.267 2.925 12.267c5.18-1.134 15.9-9.472 15.9-9.472L126.5 51l1.658-5.03z"/><path fill="#D78235" d="M161.463 175.574l-11.708-59.594s-.403 19.99 1.214 23.006c1.613 3.023 6.857 27.785-4.445 31.68 0 0-25.764 6.396-45.563 5.773l20.417-11.23 12.634-26.976 6.46-30.55 8.074-29.42 9.28 40.357 14.535 22.632 1.615 4.65-12.515 29.672zM127.192 60.41l2.156-.032 11.49 3.96-17.867 4.696 4.58-3.736"/><path fill="#E1C1BE" d="M174.02 195.443s3.975 6.975 3.975 9.768c0 2.786-2.984 5.577-2.984 5.577l-5.964 2.79-4.967-2.79-1.49-5.576 6.456-6.513 4.473-5.95.5 2.696z"/><path fill="#FFF" d="M128.048 56.185s-1.706 7.4-7.978 10.184l-3.794 2.605 7.9 8.63 5.666-13.808-1.794-7.612zM103.955 70.798s-7.157-4.8-8.183-9.664l-5.588 4.994 6.475 13.084 7.295-8.414z"/><path fill="#CCDCE0" d="M116.542 68.74l-1.487 5.114 4.47-1.86"/><path fill="#D9B4B1" d="M86.02 17.313S82.526 39.63 83.375 45.7c1.126 8.073 6.857 14.932 13.74 19.127 4.193 2.555 9.14.865 12.96-1.377 3.99-2.346 8.657-4.922 11.955-8.256 10.086-10.193 14.87-36.37-.24-44.31-17.713-9.3-31.49-1.223-35.77 6.43z"/><path fill="#CCDCE0" d="M106.988 75.463l-3.175-4.57-2.48 3.257"/><path fill="#EAEAEA" d="M128.048 56.185l-3.26 6.578 3.322 5.66 1.733-4.626 1.284-2.89"/><path fill="#D2AAA8" d="M101.58 19.807c-3.13 2.426-2.283 7.01-.52 10.735 1.246 2.63.437 6.002-.94 8.44-1.32 2.34-3.892 6.284-1.755 8.874.997 1.207 5.42 3.39 7.026 4.094.538 3.09-2.716 3.75-4.145 5.48 5.355.057.197 6.62-1.546 7.947 7.135 1.117 10.093-1.143 15.93-4.844 3.467-2.197 7.13-4.44 9.848-7.558 2.827-3.244 2.595-6.83 4.53-10.34 1.994-3.614 7.922-14.552-1.133-12.833l-4.854-5.26s8.015-18.635-11.374-7.77c-2.682 1.5-6.634.983-9.49 2.144-.613.248-1.135.548-1.575.89z"/><path fill="#C59999" d="M101.762 30.09l-5.01 15.684 7.577.815-3.046-16.278"/><path fill="#676361" d="M125.72 38.48s-1.284-10.16-1.7-13.937c-.423-3.783 2.36-8.936-.55-10.388-8.385-4.17-14.135 6.98-22.24 5.196-5.102-1.124-5.222-7.755-10.524-5.907-3.67 1.28-4.553 8.412-5.73 11.386C84.49 10.865 94.65 1.627 109.547.094c11.394-1.176 30.742 8.648 25.192 26.094-4.762 14.966-8.017 25.402-8.017 25.402s-.128-1.136.3-5.108c.54-5 3.547-15.84 2.405-16.572-2.057-1.324-1.355 7.062-1.355 7.062l-2.35 1.505z"/><path fill="#0B324E" d="M80.78 28.33l16.353-.698c2.903-4.195 7.693-.727 7.693-.727l16.347-.41c.23 8.185-4.414 12.688-12.203 11.242-7.792-1.447-5.545-7.646-5.545-7.646-2.41-3.654-6.423.884-6.423.884s-2.923 9.71-10.004 8.59c-7.073-1.118-6.218-11.233-6.218-11.233zm30.377 7.222s6.932.736 6.624-6.608l-10.492.37s-3.518 6.04 3.87 6.238zm-23.62 1.922s5.426 1.215 5.892-7.186l-9.878.572s-.782 6.022 3.986 6.614z"/><path fill="#E1C1BE" d="M128.875 29.804s2.104-2.627 4.083-.465c1.974 2.157 1.322 11.854-5.035 11.84 0 0-1.778-9.343.952-11.376z"/><path fill="#0B324E" d="M120.864 26.8l8.01 3.004-1.457 2.035-6.863-3.203"/><path fill="#B1705D" d="M153.36 187.613l-.144 6.277s-1.95 2.973-1.924 6.877c.023 3.908 3.537 9.762 5.56 11.086 2.022 1.326 5.417 2.494 5.417 2.494l4.692-3.29 1.852-3.74s-2.143-6.007-4.695-11.577l-.458-7.38s-5.416-2.49-10.3-.747z"/><path fill="#195B54" d="M228.838 218.824c-.016-4.178-.243-8.355-.686-12.514-.434-4.076-.71-18.207-4.2-20.625-3.198-2.22-16.382-.49-20.296-.607l-43.262-1.285c-1.203 11.752-2.574 23.406-3.75 35.03h72.194z"/><path opacity=".9" fill="#FFF" d="M230.445 160.346l2.5-16.203-5.836-16.202"/><path fill="#A42428" d="M174.19 89.288s-10.224-.164-12.306 9.172c-2.082 9.336-.287 45.962-2.703 52.606-2.42 6.65-10.434 35.326-6.673 39.432 3.76 4.104 16.965 2.102 19.86-11.88 2.892-13.976 4.784-39.66 4.784-39.66s-4.79-49.453-2.96-49.67z"/><path fill="#BC392D" d="M208.76 78.062s18.346 5.97 22.518 10.233c4.17 4.262 2.086 23.87-.832 37.515-2.922 13.64-4.174 20.465-3.336 25.58.836 5.115 4.168 35.81-5.838 39.22-10.012 3.413-56.293 2.983-62.55-8.097-6.255-11.086 11.26-35.81 7.927-45.19-1.825-5.13-11.26-15.774.415-47.324 2.514-6.794 10.617-8.564 20.016-11.515l21.68-.423z"/><path fill="#A56859" d="M207.703 70.39l1.44 7.673s10.038 18.33-11.474 17.48c-21.513-.854-13.27-12.79-9.323-16.2l2.152-.857 1.073-10.23 16.13 2.134z"/><path fill="#B73427" d="M223.3 106.626s-5.907 26.858-12.993 31.12c-7.09 4.264-5.61 9.38-3.84 20.467 1.77 11.082-3.545 34.53-3.545 34.53s23.332 3.835 24.51-15.35c1.186-19.18-2.062-25.575-.885-30.69 1.184-5.12 1.184-7.678 1.184-7.678s7.97-27.71-4.43-32.4z"/><path fill="#174C49" d="M205.424 204.254c1.442 4.428 1.123 9.58.65 14.57h22.277c-.02-9.956-3.09-19.806-4.645-29.75l-11.4 2.39-12.508-.64-20.014.64s25.02 10.872 25.64 12.79z"/><path fill="#B73427" d="M173.812 149.35s-7.8-10.447-8.416-15.38l-1.232-9.858s-3.352 36.314-4.22 40.508c-.866 4.193-6.165 21.184-2.183 27.08 0 0 5.88 2.494 9.27-3.814 0 0 7.36-19.052 6.782-38.536z"/><path fill="#A42428" d="M231.277 88.296s5 .425 7.504 9.377c2.503 8.954 10.01 43.06 7.09 56.702-2.917 13.64-5.42 23.025-6.257 26.006-.832 2.985-5.418 8.948-10.838 2.985-5.418-5.97-2.504-11.938-.416-22.594 2.085-10.66-2.09-29.415-4.587-39.647-2.502-10.234-2.084-34.105 7.504-32.827z"/><path fill="#B1705D" d="M234.973 181.262s.03 3.86 1.057 6.11c1.03 2.255.56 6.92.56 6.92l-2.515 8.308s-2.672 5.717-3.918 5.586c-1.246-.133-6.395 1.035-4.547-4.77 1.842-5.803 1.855-10.09 1.855-10.09s-2.346 6.615-3.328 3.938c-.988-2.678-.432-8.19-.432-8.19l3.586-6.478.888-4.617s4.45-2.54 6.795 3.282z"/><path fill="#B73427" d="M223.252 83.072l-14.492-5.01s5.11 5.648 1.355 11.724l-3.438 4.477 16.575-11.19z"/><path fill="#996053" d="M207.613 74.757s-.312 3.838 2.502 5.438l1.252 7.033s.312 2.24-2.502 4.797c-2.816 2.557-6.566 3.197-6.566 3.197l2.188-12.47-6.258-5.755s7.82 1.598 9.383-2.24z"/><path opacity=".37" fill="#325D7E" d="M186.604 218.824c-.108-.707-.224-1.406-.35-2.09-.042-.242-.112-.498-.204-.77-.82-2.408-3.297-5.852-3.143-7.875 0 0-.31 4.038-.827 10.733h4.524z"/><path fill="#7A1430" d="M183.312 36.94s.135 7.202 12.588 8.585c7.467.826 17.45 8.756 13.434 24.946l-.098 7.47s8.15 7.4 17.164 3.3c9.016-4.103 10.262-17.614 1.44-28.45-8.813-10.838-4.32-36.512-32.76-32.573-6.25.868-10.24-.864-15.224 3.942-7.428 7.16-7.25 16.587-5.658 25.898.537 3.13 4.305 13.146.902 15.795-2.805 2.18-14.057 9.916-6.465 15.862 7.592 5.947 17.828-2.712 17.828-2.712l-3.15-42.063z"/><path fill="#650F27" d="M183.645 38.413l-1.53-6.968s-10.237 11.757-6.726 23.65c0 0 2.37 8.334-.288 10.758-2.664 2.425-7.275 10.18-3.357 14.437 3.922 4.254 7.752 2.05 7.752 2.05l5.533-2.542-1.385-41.385z"/><path fill="#B1705D" d="M183.645 38.413s-6.615 3.563-6.615 12.906c-.002 9.34 1.562 20.792 1.562 20.792s2.35 7.844 9.193 8.71c6.842.864 20.15-2.38 21.832-7.39 1.686-5.006 4.902-20.238-3.162-25.908-8.062-5.675-18-.55-22.81-9.11z"/><path fill="#7F1621" d="M203.547 45.163s12.818 4.595 6.07 28.27c0 0-3.143 4.246 2.975 6.988 6.113 2.74 13.87 4.792 19.53-4.975 0 0-5.442 5.042-10.32 1.34-4.88-3.706-6.942-9.41-5.606-15.792 1.333-6.384-1.22-14.87-12.65-15.83z"/><path opacity=".38" fill="#996053" d="M203.547 45.163l-6.486 2.474-6.292 4.636-8.633 11.775 11.44 6.354-6.962 1.764s6.348 2.177-.148 6.84c0 0 16.334 3.746 24.24-.607l1.088-16.43s3.498-10.735-8.246-16.807z"/><path fill="#996053" d="M190.768 52.272l-7.81 10.98 7.03 2.128"/><path fill="#FFF" d="M71.19 173.072c.102-.514.313-3.234.382-2.367-.024-1.562-3.5-4.936-3.645-6.492-15.04-4.002-15.72 2.008-15.72 2.008-1.237 5.96 13.147 13.384 13.147 13.384l4.61-.557c.393-1.98.838-3.965 1.227-5.975z"/><path fill="#E1C1BE" d="M55.422 171.732s7.18-5.703 12.045-.188c4.866 5.516 4.87 14.238.12 19.79-4.744 5.556-13.32-8.177-13.32-8.177l1.155-11.425z"/></svg>
