<svg xmlns="http://www.w3.org/2000/svg" xmlns:xlink="http://www.w3.org/1999/xlink" width="323.208" height="157.5" viewBox="0 0 323.208 157.5"><path fill="#CFE4BB" d="M.188 116.038s27.35-31.09 61.248-41.336C95.332 64.46 138.79 96.562 159.66 94.51c20.853-2.045 39.976 1.367 52.145 8.2 12.17 6.825 44.33 6.825 57.368 3.413 13.04-3.413 44.927 3.372 53.628 10.88.002 0-256.555 28.396-322.612-.965"/><g opacity=".56"><defs><path id="a" d="M.188 72.625h139.536V121.6H.188z"/></defs><clipPath id="b"><use xlink:href="#a" overflow="visible"/></clipPath><path clip-path="url(#b)" fill="#ECECEC" d="M27.706 114.518c8.072.032 15.88 1.465 23.807 2.704 7.192 1.12 14.81.313 22.073.435 7.76.137 15.62.9 22.966 3.364.45.154.894.347 1.32.58 20.568-6.712 41.852-9.754 41.852-9.754s-37.618-5.256-51.663-8.7c-50.66-12.428-1.093-26.158-17.834-30.27C53.48 68.752.188 116.037.188 116.037l13.477-.58c4.672-.434 9.344-.957 14.04-.94"/></g><path fill="#ECEEEE" d="M319.09 149.745c.08-3.517 1.506-6.704 3.712-8.692v-24.05c-20.83.26-75.81-2.6-88.903-2.687-40.718-.29-49.306 3.686-88.64.563-19.19-1.522-38.5.787-57.02-1.99-23.53-3.508-60.32-1.745-88.05 3.147l.575 40.034 318.786 4.885c-.315-3.725-.547-7.443-.46-11.21"/><path fill="#FFF" d="M.764 156.072l321.515 6.23.522-20.62c-2.882-5.66-51.108-21.78-102.836-24.678 0 0 51.357 10.375 38.054 14.994-27.93 9.707-106.964 19.324-257.256 24.074"/><path fill="#266B9C" d="M168.883 15.066l-6.777 6.32 4.652 8.912 48.057 7.123.113-15.097"/><path fill="#0D3350" d="M169.156 15.22l1.844-.81 40.322 5.84-.136 1.944"/><path fill="#163F62" d="M164.932 21.867l5.35-4.048 37.788 5.84-.837 9.556-37.795-4.7"/><path fill="#0D3350" d="M169.495 39.06l8.12 7.94 2.69.97-8.75-8.05"/><path fill="#266B9C" d="M213.882 24.443l.13 14.077-33.853 9.61-9.023-8.753 8.04-8.592"/><path fill="#163F62" d="M174.662 40.024l5.15-6.474 32.355-5.682v8.918l-30.88 8.265"/><path fill="#0D3350" d="M169.495 39.06l7.896-8.866 34.07-6.383 2.68.65-35.252 6.816-7.333 8.644M212.167 36.786l-1.126-.487-.144-7.784 1.27-.648"/><g opacity=".25"><defs><path id="c" d="M179.732 36.3h32.435v8.747h-32.435z"/></defs><clipPath id="d"><use xlink:href="#c" overflow="visible"/></clipPath><path clip-path="url(#d)" fill="#266B9C" d="M212.167 36.786l-1.126-.487-31.308 7.62 1.554 1.13"/></g><g opacity=".48"><defs><path id="e" d="M202.35 23.96h8.015v4.914h-8.016z"/></defs><clipPath id="f"><use xlink:href="#e" overflow="visible"/></clipPath><path clip-path="url(#f)" fill="#4C616E" d="M210.228 25.646v2.25l-2.22.277-3.728.71.692-1.41-2.623-1.264 4.143.277 1.385-1.118 2.486-1.41"/></g><path fill="#163F62" d="M213.142 4.407c-1.336 2.503-3.992 7.72-3.992 7.72M209.15 12.125v115.98l7.195 3.177 5.4-2.14-2.616-116.964-4.12-8.45"/><path fill="#266B9C" d="M217.753 37.05l39.252 11.08 2.97-.16 7.517-10.428-8.644-9.35-41.272-5.18"/><path fill="#0D3350" d="M220.635 22.033l38.914 5.512 7.942 9.997-7.517 10.427-2.97.16 8.467-10.535-8.177-9.402-39.485-5.182"/><g opacity=".25"><defs><path id="g" d="M219.773 34.35h36.53v9.73h-36.53z"/></defs><clipPath id="h"><use xlink:href="#g" overflow="visible"/></clipPath><path clip-path="url(#h)" fill="#266B9C" d="M220.916 34.355l35.39 8.588-.702 1.13-35.83-8.91"/></g><path fill="#163F62" d="M219.918 26.08l35.815 4.866 5.642 6.488-5.778 6.64-35.824-8.91"/><path fill="#0D3350" d="M219.773 35.164l1.143-.81.13-6.81 34.277 4.698 5.207 5.84.845-.648-5.642-6.488-35.815-4.865M209.15 12.125l5.054 1.82 2.14 117.337-7.195-3.178"/><g opacity=".42"><defs><path id="i" d="M187.99 24.56h23.5v6.213h-23.5z"/></defs><clipPath id="j"><use xlink:href="#i" overflow="visible"/></clipPath><path clip-path="url(#j)" fill="#0D3350" d="M211.274 24.56l-23.276 6.213 23.493-1.992"/></g></svg>
