<?xml version="1.0" ?><svg enable-background="new 0 0 32 32" height="32px" id="svg2" version="1.1" viewBox="0 0 32 32" width="32px" xml:space="preserve" xmlns="http://www.w3.org/2000/svg" xmlns:cc="http://creativecommons.org/ns#" xmlns:dc="http://purl.org/dc/elements/1.1/" xmlns:inkscape="http://www.inkscape.org/namespaces/inkscape" xmlns:rdf="http://www.w3.org/1999/02/22-rdf-syntax-ns#" xmlns:sodipodi="http://sodipodi.sourceforge.net/DTD/sodipodi-0.dtd" xmlns:svg="http://www.w3.org/2000/svg"><g id="background"><rect fill="none" height="32" width="32"/></g><g id="calculator"><path d="M6,0v32h20V0H6z M11.999,30H8v-2.001h3.999V30z M11.999,26H8v-2h3.999V26z M12,22H7.999v-2H12V22z M12,18H8v-2H12V18z    M12,14H7.999v-2H12V14z M17.999,30H14v-2.001h3.999V30z M18,26h-4v-2h4V26z M14,22v-2h3.999v2H14z M18,18h-4v-2h4V18z M18,14h-4   V12h4V14z M24,30h-4.001v-6H24V30z M24,22h-4v-2h4V22z M24,18h-4v-2h4V18z M24,14h-4v-2h4V14z M24,8H8V4h16V8z"/></g></svg>