<?xml version="1.0" standalone="no"?>
<!DOCTYPE svg PUBLIC "-//W3C//DTD SVG 1.1//EN" "http://www.w3.org/Graphics/SVG/1.1/DTD/svg11.dtd" >
<svg xmlns="http://www.w3.org/2000/svg" xmlns:xlink="http://www.w3.org/1999/xlink" version="1.1">
<metadata>
Created by FontForge 20170731 at Tue Feb 13 03:06:28 2018
 By Aleksey,,,
Copyright (c) 2017 by Martin Va'cha. All rights reserved.
</metadata>
<defs>
<font id="RoobertTRIAL-Bold" horiz-adv-x="599" >
  <font-face 
    font-family="Roobert TRIAL"
    font-weight="700"
    font-stretch="normal"
    units-per-em="1000"
    panose-1="0 0 8 0 0 0 0 0 0 0"
    ascent="796"
    descent="-204"
    x-height="504"
    cap-height="700"
    bbox="-43 -204 1068 796"
    underline-thickness="50"
    underline-position="-200"
    unicode-range="U+000D-007A"
  />
<missing-glyph horiz-adv-x="1119" 
d="M551 -204v1000q-200 -7 -341.5 -154t-141.5 -347q0 -201 141 -346.5t342 -152.5zM585 793v-994q63 18 107.5 162t44.5 334t-44.5 334.5t-107.5 163.5zM769 295q0 -160 -30.5 -289t-82.5 -192q111 41 182.5 175.5t71.5 305.5q0 170 -71.5 305t-182.5 178
q52 -64 82.5 -193.5t30.5 -289.5zM754 -168q140 56 227 183t87 280t-87.5 280.5t-229.5 184.5q89 -71 140.5 -195.5t51.5 -269.5t-51 -269t-138 -194z" />
    <glyph glyph-name=".notdef" horiz-adv-x="1119" 
d="M551 -204v1000q-200 -7 -341.5 -154t-141.5 -347q0 -201 141 -346.5t342 -152.5zM585 793v-994q63 18 107.5 162t44.5 334t-44.5 334.5t-107.5 163.5zM769 295q0 -160 -30.5 -289t-82.5 -192q111 41 182.5 175.5t71.5 305.5q0 170 -71.5 305t-182.5 178
q52 -64 82.5 -193.5t30.5 -289.5zM754 -168q140 56 227 183t87 280t-87.5 280.5t-229.5 184.5q89 -71 140.5 -195.5t51.5 -269.5t-51 -269t-138 -194z" />
    <glyph glyph-name=".null" horiz-adv-x="0" 
 />
    <glyph glyph-name="nonmarkingreturn" horiz-adv-x="333" 
 />
    <glyph glyph-name="CR" unicode="&#xd;" horiz-adv-x="249" 
 />
    <glyph glyph-name="space" unicode=" " horiz-adv-x="211" 
 />
    <glyph glyph-name="hyphen" unicode="-" horiz-adv-x="487" 
d="M47 258v119h394v-119h-394z" />
    <glyph glyph-name="zero" unicode="0" horiz-adv-x="645" 
d="M302 -8q-130 0 -195 86.5t-65 249.5v45q0 163 65 249t195 86h41q130 0 195 -86.5t65 -248.5v-45q0 -163 -65 -249.5t-195 -86.5h-41zM309 122h27q52 0 84.5 41.5t32.5 119.5v135q0 78 -32.5 119.5t-84.5 41.5h-27q-52 0 -84 -41.5t-32 -119.5v-135q0 -78 32 -119.5
t84 -41.5z" />
    <glyph glyph-name="one" unicode="1" horiz-adv-x="395" 
d="M330 700v-700h-151v499q-9 -13 -37 -20.5t-54 -7.5h-50v129h47q46 0 71 22t32 78h142z" />
    <glyph glyph-name="two" unicode="2" horiz-adv-x="575" 
d="M44 451q-1 119 67.5 188t186.5 69q112 0 181.5 -60.5t69.5 -159.5q0 -142 -167 -225l-111 -56q-75 -40 -75 -77h351v-130h-500l-1 111q0 73 48 128t110 85l114 57q80 38 80 107q0 45 -26.5 71.5t-73.5 26.5q-51 0 -78 -37t-25 -98h-151z" />
    <glyph glyph-name="three" unicode="3" horiz-adv-x="620" 
d="M314 -8q-113 0 -188.5 62t-75.5 167h145q0 -47 34 -73t85 -26q52 0 82.5 24t30.5 66q0 40 -30.5 63.5t-82.5 23.5h-67v123h64q41 0 66 22.5t25 57.5t-27 56t-71 21q-45 0 -72 -23t-28 -70h-142q1 101 73 161.5t172 60.5q102 0 171 -55.5t69 -134.5q0 -48 -22.5 -88
t-60.5 -61q52 -19 82 -62t30 -99q0 -98 -76 -157t-186 -59z" />
    <glyph glyph-name="four" unicode="4" horiz-adv-x="660" 
d="M382 0v138h-351v129l341 433h161v-433h82v-129h-82v-138h-151zM179 267h204v250z" />
    <glyph glyph-name="five" unicode="5" horiz-adv-x="611" 
d="M302 -8q-103 0 -174.5 62t-76.5 155h142q6 -41 34 -64t74 -23q53 0 85 30.5t32 81.5q0 52 -32 83.5t-84 31.5q-76 0 -107 -54h-132l59 405h400v-129h-289l-21 -136q46 38 121 38q101 0 168.5 -68.5t67.5 -170.5q0 -105 -76.5 -173.5t-190.5 -68.5z" />
    <glyph glyph-name="six" unicode="6" horiz-adv-x="649" 
d="M345 467q109 0 176.5 -67.5t67.5 -168.5t-76 -170t-187 -69q-131 0 -203.5 95t-72.5 243q0 176 78 277t208 101q109 0 180.5 -58t82.5 -146h-139q-8 35 -40 57.5t-78 22.5q-64 0 -105.5 -53.5t-46.5 -137.5q22 32 66 53t89 21zM329 122q49 0 79 30t30 79q0 48 -30 78
t-79 30t-80 -30.5t-31 -77.5q0 -49 30.5 -79t80.5 -30z" />
    <glyph glyph-name="seven" unicode="7" horiz-adv-x="566" 
d="M149 0q0 101 21.5 180t75.5 165l144 226h-353v129h519v-117l-179 -279q-44 -68 -61 -137.5t-17 -166.5h-150z" />
    <glyph glyph-name="eight" unicode="8" horiz-adv-x="632" 
d="M317 -8q-115 0 -190.5 59.5t-75.5 155.5q0 59 31 102.5t83 67.5q-83 55 -83 142q0 83 66 136t169 53t169 -53t66 -136q0 -88 -86 -142q54 -23 85 -67t31 -103q0 -96 -75 -155.5t-190 -59.5zM317 436q44 0 70 20.5t26 55.5q0 34 -26 55t-70 21t-70 -20.5t-26 -55.5
t26 -55.5t70 -20.5zM317 121q54 0 85.5 24t31.5 66t-31.5 66.5t-85.5 24.5t-87 -24.5t-33 -66.5t33 -66t87 -24z" />
    <glyph glyph-name="nine" unicode="9" horiz-adv-x="647" 
d="M302 233q-109 0 -176.5 67.5t-67.5 168.5t76 170t187 69q131 0 203.5 -95t72.5 -243q0 -176 -78 -277t-208 -101q-109 0 -180.5 58t-82.5 146h139q8 -35 40 -57.5t78 -22.5q64 0 105.5 53.5t46.5 137.5q-22 -32 -66 -53t-89 -21zM318 578q-49 0 -79 -30t-30 -79
q0 -48 30 -78t79 -30t80 30.5t31 77.5q0 49 -30.5 79t-80.5 30z" />
    <glyph glyph-name="A" unicode="A" horiz-adv-x="685" 
d="M524 0l-55 153h-253l-55 -153h-156l266 700h143l266 -700h-156zM261 279h163l-81 227z" />
    <glyph glyph-name="B" unicode="B" horiz-adv-x="633" 
d="M65 0v700h278q98 0 160 -47.5t62 -132.5q0 -46 -24 -83t-58 -55q52 -20 85 -64t33 -109q0 -98 -68.5 -153.5t-181.5 -55.5h-286zM213 433h119q94 0 94 74t-97 74h-116v-148zM213 130h125q120 0 120 87q0 89 -120 89h-125v-176z" />
    <glyph glyph-name="C" unicode="C" horiz-adv-x="734" 
d="M385 -8q-150 0 -250.5 94t-100.5 264q0 169 101 263.5t250 94.5q132 0 221 -69t103 -182h-157q-7 54 -54 88t-113 34q-88 0 -144 -60t-56 -169t56 -168.5t144 -59.5q67 0 114.5 33.5t56.5 87.5h150q-10 -113 -98.5 -182t-222.5 -69z" />
    <glyph glyph-name="D" unicode="D" horiz-adv-x="696" 
d="M65 0v700h235q155 0 258.5 -90t103.5 -260q0 -86 -29 -154.5t-79.5 -110.5t-115 -63.5t-138.5 -21.5h-235zM215 130h70q97 0 161 52.5t64 167.5t-64 168t-161 53h-70v-441z" />
    <glyph glyph-name="E" unicode="E" horiz-adv-x="586" 
d="M65 0v700h476v-129h-326v-148h260v-130h-260v-163h337v-130h-487z" />
    <glyph glyph-name="F" unicode="F" horiz-adv-x="575" 
d="M65 0v700h476v-129h-326v-156h260v-130h-260v-285h-150z" />
    <glyph glyph-name="G" unicode="G" horiz-adv-x="746" 
d="M378 -8q-144 0 -244 94t-100 264q0 115 51 198t130 121.5t174 38.5q132 0 218 -70t93 -183h-149q-8 57 -52 90.5t-111 33.5q-92 0 -151.5 -61.5t-59.5 -167.5t59.5 -171t148.5 -65q65 0 119 39.5t54 88.5q0 28 -28 28h-135v113h190q48 0 80.5 -33.5t32.5 -79.5v-270h-133
v107q-17 -52 -68.5 -83.5t-118.5 -31.5z" />
    <glyph glyph-name="H" unicode="H" horiz-adv-x="718" 
d="M503 700h151v-700h-151v293h-288v-293h-150v700h150v-278h288v278z" />
    <glyph glyph-name="I" unicode="I" horiz-adv-x="281" 
d="M65 0v700h151v-700h-151z" />
    <glyph glyph-name="J" unicode="J" horiz-adv-x="363" 
d="M23 130h73q37 0 52 20t15 66v484h150v-491q0 -104 -48.5 -156.5t-138.5 -52.5h-103v130z" />
    <glyph glyph-name="K" unicode="K" horiz-adv-x="697" 
d="M503 0l-191 311l-96 -105v-206h-151v700h151v-292l264 292h187l-252 -277l277 -423h-189z" />
    <glyph glyph-name="L" unicode="L" horiz-adv-x="545" 
d="M65 0v700h151v-570h318v-130h-469z" />
    <glyph glyph-name="M" unicode="M" horiz-adv-x="876" 
d="M65 0v700h169l204 -489l205 489h168v-700h-140v427l-177 -427h-111l-178 427v-427h-140z" />
    <glyph glyph-name="N" unicode="N" horiz-adv-x="721" 
d="M65 0v700h160l281 -463v463h150v-700h-160l-281 463v-463h-150z" />
    <glyph glyph-name="O" unicode="O" horiz-adv-x="782" 
d="M392 -8q-154 0 -256 102t-102 256t102 256t256 102t255.5 -102t101.5 -256t-101.5 -256t-255.5 -102zM391 122q90 0 148.5 65t58.5 163q0 99 -58.5 164t-148.5 65t-148 -65t-58 -164t58 -163.5t148 -64.5z" />
    <glyph glyph-name="P" unicode="P" horiz-adv-x="606" 
d="M65 0v700h288q110 0 173 -61t63 -160q0 -98 -63 -159.5t-173 -61.5h-137v-258h-151zM216 383h128q50 0 75 27.5t25 68.5t-25 68.5t-75 27.5h-128v-192z" />
    <glyph glyph-name="Q" unicode="Q" horiz-adv-x="782" 
d="M749 350q0 -136 -81 -233t-209 -119v-29q0 -35 16 -49.5t52 -14.5h89v-109h-97q-100 0 -145.5 39t-45.5 126v36q-130 21 -212 118.5t-82 234.5q0 154 102 256t256 102t255.5 -102t101.5 -256zM185 350q0 -99 58 -163.5t148 -64.5t148.5 65t58.5 163q0 99 -58.5 164
t-148.5 65t-148 -65t-58 -164z" />
    <glyph glyph-name="R" unicode="R" horiz-adv-x="669" 
d="M588 193l19 -193h-150l-19 173q-4 36 -27.5 58.5t-58.5 22.5h-136v-254h-151v700h295q110 0 173 -61t63 -159q0 -100 -88 -146q71 -49 80 -141zM216 575v-192h136q49 0 74 28t25 69t-25 68t-74 27h-136z" />
    <glyph glyph-name="S" unicode="S" horiz-adv-x="583" 
d="M295 -8q-119 0 -192.5 67t-78.5 179h144q5 -54 38.5 -85t88.5 -31q51 0 81.5 21t30.5 60q0 27 -20 45t-52 28t-70.5 18.5t-77.5 22.5t-71 35.5t-52 61.5t-20 96q0 87 68 142.5t174 55.5q113 0 183.5 -60t73.5 -160h-143q-4 42 -34 66.5t-80 24.5q-44 0 -70 -19t-26 -50
q0 -34 27.5 -54.5t68 -28t88.5 -21t88.5 -31.5t68 -61.5t27.5 -108.5q0 -98 -72 -155.5t-191 -57.5z" />
    <glyph glyph-name="T" unicode="T" horiz-adv-x="580" 
d="M215 0v571h-207v129h564v-129h-207v-571h-150z" />
    <glyph glyph-name="U" unicode="U" horiz-adv-x="660" 
d="M330 -8q-128 0 -203.5 68.5t-75.5 197.5v442h141v-442q0 -67 37.5 -101t100.5 -34t101 34t38 101v442h140v-442q0 -129 -75.5 -197.5t-203.5 -68.5z" />
    <glyph glyph-name="V" unicode="V" horiz-adv-x="659" 
d="M257 0l-252 700h152l172 -512l174 512h151l-252 -700h-145z" />
    <glyph glyph-name="W" unicode="W" horiz-adv-x="1018" 
d="M224 0l-208 700h152l134 -479l143 479h127l144 -479l135 479h152l-207 -700h-148l-139 466l-139 -466h-146z" />
    <glyph glyph-name="X" unicode="X" horiz-adv-x="625" 
d="M604 0h-158l-133 220l-133 -220h-160l214 350l-212 350h156l134 -221l135 221h156l-212 -350z" />
    <glyph glyph-name="Y" unicode="Y" horiz-adv-x="630" 
d="M239 0v290l-238 410h161l153 -270l153 270h161l-239 -410v-290h-151z" />
    <glyph glyph-name="Z" unicode="Z" horiz-adv-x="592" 
d="M24 0v128l373 444h-354v128h521v-128l-369 -444h370v-128h-541z" />
    <glyph glyph-name="a" unicode="a" horiz-adv-x="524" 
d="M260 512q96 0 158 -51.5t62 -136.5v-324h-138v70q-13 -35 -51.5 -56.5t-90.5 -21.5q-73 0 -119 43t-46 108q0 74 50.5 116.5t133.5 42.5h85q18 0 28 10.5t10 26.5q0 32 -24 51.5t-66 19.5q-43 0 -67.5 -23t-26.5 -57h-124q5 79 65.5 130.5t160.5 51.5zM235 93
q50 0 78.5 32t28.5 82v7h-102q-32 0 -52 -18t-20 -47q0 -25 19 -40.5t48 -15.5z" />
    <glyph glyph-name="b" unicode="b" 
d="M336 -8q-93 0 -138 63v-55h-139v723h139v-272q46 61 140 61q109 0 172.5 -71t63.5 -189q0 -119 -64 -189.5t-174 -70.5zM313 112q55 0 89 38.5t34 101.5q0 64 -33.5 102.5t-89.5 38.5t-89.5 -38.5t-33.5 -102.5q0 -63 34 -101.5t89 -38.5z" />
    <glyph glyph-name="c" unicode="c" horiz-adv-x="555" 
d="M285 -8q-115 0 -187.5 74t-72.5 186t72.5 186t187.5 74q100 0 169.5 -55t76.5 -142h-140q-6 34 -35 56t-67 22q-55 0 -87 -39t-32 -102t32.5 -101.5t88.5 -38.5q38 0 66 21t36 55h142q-11 -84 -81.5 -140t-168.5 -56z" />
    <glyph glyph-name="d" unicode="d" 
d="M263 -8q-110 0 -174 70.5t-64 189.5q0 118 63.5 189t172.5 71q94 0 140 -61v272h139v-723h-139v55q-45 -63 -138 -63zM286 112q55 0 89 38.5t34 101.5q0 64 -33.5 102.5t-89.5 38.5t-89.5 -38.5t-33.5 -102.5q0 -63 34 -101.5t89 -38.5z" />
    <glyph glyph-name="e" unicode="e" horiz-adv-x="549" 
d="M388 171h136q-15 -81 -81 -130t-159 -49q-121 0 -190 78.5t-69 182.5q0 105 64.5 182t184.5 77q123 0 186 -74t63 -172q0 -23 -2 -45h-362q8 -54 40.5 -84.5t84.5 -30.5q87 0 104 65zM274 410q-96 0 -113 -101h223q-3 44 -32 72.5t-78 28.5z" />
    <glyph glyph-name="f" unicode="f" horiz-adv-x="422" 
d="M116 0v388h-97v116h97v45q0 79 51.5 126.5t136.5 47.5h95v-116h-76q-31 0 -49.5 -18t-18.5 -48v-37h144v-116h-144v-388h-139z" />
    <glyph glyph-name="g" unicode="g" horiz-adv-x="607" 
d="M408 504h140v-534q0 -79 -52 -126.5t-138 -47.5h-254v109h232q32 0 52.5 22.5t20.5 57.5v66q-19 -28 -56 -43.5t-82 -15.5q-111 0 -174.5 70.5t-63.5 189.5t63.5 189.5t172.5 70.5q93 0 139 -58v50zM293 112q56 0 90 38t34 102t-34 102.5t-90 38.5t-89.5 -38.5
t-33.5 -102.5t33.5 -102t89.5 -38z" />
    <glyph glyph-name="h" unicode="h" horiz-adv-x="590" 
d="M59 0v723h139v-289q46 78 154 78q84 0 135.5 -55t51.5 -143v-314h-139v283q0 46 -27.5 75.5t-70.5 29.5q-46 0 -75 -31.5t-29 -80.5v-276h-139z" />
    <glyph glyph-name="i" unicode="i" horiz-adv-x="242" 
d="M45 727h153v-148h-153v148zM51 0v504h140v-504h-140z" />
    <glyph glyph-name="j" unicode="j" horiz-adv-x="241" 
d="M45 727h153v-148h-153v148zM51 504h139v-539q0 -79 -46 -124t-131 -45h-56v109h33q61 0 61 75v524z" />
    <glyph glyph-name="k" unicode="k" horiz-adv-x="571" 
d="M398 0l-143 213l-56 -55v-158h-140v723h140v-391l175 172h176l-201 -198l217 -306h-168z" />
    <glyph glyph-name="l" unicode="l" horiz-adv-x="257" 
d="M59 0v723h139v-723h-139z" />
    <glyph glyph-name="m" unicode="m" horiz-adv-x="888" 
d="M51 0v504h140v-71q46 79 143 79q117 0 154 -92q19 39 64.5 65.5t103.5 26.5q81 0 131 -52.5t50 -129.5v-330h-139v286q0 49 -24.5 78.5t-64.5 29.5q-43 0 -69 -29.5t-26 -78.5v-286h-140v286q0 49 -24 78.5t-64 29.5q-43 0 -69 -29.5t-26 -78.5v-286h-140z" />
    <glyph glyph-name="n" unicode="n" horiz-adv-x="583" 
d="M51 0v504h140v-70q45 78 153 78q85 0 136.5 -55t51.5 -143v-314h-140v283q0 46 -27 75.5t-70 29.5q-46 0 -75 -31.5t-29 -80.5v-276h-140z" />
    <glyph glyph-name="o" unicode="o" horiz-adv-x="582" 
d="M291 -8q-116 0 -191 73.5t-75 186.5t75 186.5t191 73.5t191 -73.5t75 -186.5t-75 -186.5t-191 -73.5zM291 112q56 0 91 39t35 101q0 63 -35 102t-91 39t-91 -39t-35 -102q0 -62 35 -101t91 -39z" />
    <glyph glyph-name="p" unicode="p" 
d="M59 -204v708h139v-55q48 63 145 63q105 0 168 -71t63 -189q0 -117 -67 -188.5t-176 -71.5q-91 0 -133 53v-249h-139zM314 112q55 0 89 38.5t34 101.5q0 64 -34 102.5t-89 38.5q-56 0 -90 -38.5t-34 -102.5q0 -63 34 -101.5t90 -38.5z" />
    <glyph glyph-name="q" unicode="q" 
d="M540 -204h-139v249q-42 -53 -133 -53q-109 0 -176 71.5t-67 188.5q0 118 63 189t168 71q97 0 145 -63v55h139v-708zM285 112q56 0 90 38.5t34 101.5q0 64 -34 102.5t-90 38.5q-55 0 -89 -38.5t-34 -102.5q0 -63 34 -101.5t89 -38.5z" />
    <glyph glyph-name="r" unicode="r" horiz-adv-x="388" 
d="M374 388h-83q-50 0 -75 -38t-25 -105v-245h-140v504h140v-84q20 46 49.5 65t76.5 19h57v-116z" />
    <glyph glyph-name="s" unicode="s" horiz-adv-x="458" 
d="M235 -8q-93 0 -150.5 48.5t-61.5 129.5h120q4 -34 28.5 -53.5t63.5 -19.5q32 0 52.5 14t20.5 35q0 28 -28 41t-67.5 18.5t-79.5 16.5t-68 45t-28 93q0 66 51 109t129 43q91 0 147.5 -45t60.5 -119h-121q-4 31 -28.5 48.5t-54.5 17.5t-48 -13t-18 -36q0 -28 28.5 -39.5
t69 -15.5t81 -14t69 -46t28.5 -99q0 -72 -53.5 -115.5t-142.5 -43.5z" />
    <glyph glyph-name="t" unicode="t" horiz-adv-x="414" 
d="M116 653h139v-149h135v-116h-135v-190q0 -72 71 -72h64v-126h-83q-88 0 -139.5 48t-51.5 135v205h-97v116h97v149z" />
    <glyph glyph-name="u" unicode="u" horiz-adv-x="583" 
d="M532 504v-504h-140v70q-45 -78 -153 -78q-85 0 -136.5 55t-51.5 143v314h140v-283q0 -46 27 -75.5t70 -29.5q46 0 75 31.5t29 80.5v276h140z" />
    <glyph glyph-name="v" unicode="v" horiz-adv-x="508" 
d="M190 0l-184 504h142l106 -326l105 326h143l-184 -504h-128z" />
    <glyph glyph-name="w" unicode="w" horiz-adv-x="777" 
d="M175 0l-164 504h140l85 -311l89 311h127l90 -311l85 311h139l-163 -504h-122l-92 314l-93 -314h-121z" />
    <glyph glyph-name="x" unicode="x" horiz-adv-x="530" 
d="M522 0h-148l-108 155l-109 -155h-149l182 263l-169 241h152l92 -133l92 133h153l-169 -242z" />
    <glyph glyph-name="y" unicode="y" horiz-adv-x="508" 
d="M502 504l-183 -502l-71 -206h-133l74 208l-183 500h142l106 -325l105 325h143z" />
    <glyph glyph-name="z" unicode="z" horiz-adv-x="499" 
d="M32 0v117l264 271h-247v116h406v-116l-261 -271h276v-117h-438z" />
    <glyph glyph-name="E.titl" horiz-adv-x="586" 
d="M199 0q-65 0 -99.5 34.5t-34.5 99.5v432q0 65 34.5 99.5t99.5 34.5h342v-129h-291q-35 0 -35 -35v-113h260v-130h-260v-128q0 -35 35 -35h302v-130h-353z" />
    <glyph glyph-name="F.titl" horiz-adv-x="573" 
d="M65 0v566q0 65 34.5 99.5t99.5 34.5h342v-129h-291q-35 0 -35 -35v-121h260v-130h-260v-285h-150z" />
    <glyph glyph-name="L.titl" horiz-adv-x="545" 
d="M199 0q-65 0 -99.5 34.5t-34.5 99.5v566h150v-535q0 -35 35 -35h284v-130h-335z" />
    <glyph glyph-name="a.ss01" horiz-adv-x="607" 
d="M271 -8q-111 0 -174.5 70.5t-63.5 189.5t63.5 189.5t172.5 70.5q93 0 139 -58v50h140v-504h-140v53q-19 -28 -56 -44.5t-81 -16.5zM293 112q56 0 90 38.5t34 101.5q0 64 -34 102.5t-90 38.5t-89.5 -38.5t-33.5 -102.5q0 -63 34 -101.5t89 -38.5z" />
    <glyph glyph-name="g.ss02" horiz-adv-x="536" 
d="M347 103q78 0 126 -39t48 -106q0 -73 -46.5 -117.5t-123.5 -44.5h-155q-175 0 -175 151q0 55 49 97q-32 30 -32 70q0 57 65 114q-37 43 -37 108q0 79 56.5 127.5t147.5 48.5q47 0 87 -14l70 83l83 -70l-65 -77q30 -43 30 -98q0 -80 -56.5 -128t-148.5 -48q-38 0 -76 10
q-23 -25 -23 -39q0 -28 42 -28h134zM270 406q-32 0 -53 -19.5t-21 -50.5t21 -50t53 -19q33 0 54 19t21 50t-21 50.5t-54 19.5zM344 -93q41 0 41 44t-48 44h-120q-23 0 -44 3q-16 -19 -16 -42q0 -20 13 -34.5t33 -14.5h141z" />
    <glyph glyph-name="y.ss03" horiz-adv-x="508" 
d="M502 504l-184 -504l-21 -60q-27 -77 -62 -110.5t-107 -33.5h-74v109h59q38 0 56 51l19 50l-182 498h142l106 -326l105 326h143z" />
    <glyph glyph-name="t.ss04" horiz-adv-x="414" 
d="M116 653h139v-149h135v-116h-135v-190q0 -72 71 -72h64v-126h-83q-88 0 -139.5 48t-51.5 135v205h-97v116h62q35 0 35 35v114z" />
    <glyph glyph-name="eight.dlig" horiz-adv-x="619" 
d="M61 512q0 80 72 138t177 58q103 0 175.5 -58t72.5 -138q0 -43 -12 -73t-26 -41.5t-26 -23t-12 -22.5t13.5 -23t30 -24.5t30 -43t13.5 -73.5q0 -86 -73 -141t-186 -55t-186 55t-73 141q0 43 13.5 73.5t30 43t30 24.5t13.5 23t-12 22.5t-26.5 23t-26.5 41.5t-12 73z
M194 492q0 -28 13.5 -50t29.5 -33t29.5 -26t13.5 -31q0 -15 -14 -30.5t-30 -27.5t-30 -35t-14 -51q0 -40 33 -65.5t85 -24.5q51 1 84 26.5t33 63.5q0 28 -14 51t-30.5 35t-30.5 27.5t-14 30.5q0 16 13.5 31t30 26t30 33t13.5 50q0 37 -33 63.5t-82 26.5t-82.5 -26.5
t-33.5 -63.5z" />
    </font>
</defs>
</svg>
