<svg xmlns="http://www.w3.org/2000/svg" viewBox="0 0 117 59" fill="#fff">
  <path d="M11.7708 49.4637L8.73357 46.4312L12.4681 42.7026H8.00085C3.29725 42.7026 0 39.5403 0 34.9975V29.4517H4.58542L4.59724 34.3839C4.59724 36.7556 6.15722 38.4075 8.40266 38.4075H12.4681L8.73357 34.6907L11.7708 31.6582L17.4908 37.3692C19.2517 39.1273 19.2517 41.9946 17.4908 43.7527L11.7708 49.4637ZM9.50174 46.4312L11.7708 48.6967L17.1126 43.3633C18.6608 41.8176 18.6608 39.2925 17.1126 37.7467L11.7708 32.4133L9.50174 34.6907L13.7799 38.9621H8.39084C5.82632 38.9621 4.04179 37.086 4.04179 34.3957L4.02997 30.0534H0.543632V35.0093C0.543632 39.2217 3.61633 42.1716 8.00085 42.1716H13.7799L9.50174 46.4312Z"/>
  <path d="M17.3023 37.5559L11.7714 32.0337L9.11233 34.6886L13.1187 38.6887H8.39143C5.99236 38.6887 4.31419 36.907 4.31419 34.3937L4.30237 29.78H0.2724V35.0072C0.2724 39.3849 3.45147 42.441 8.00143 42.441H13.1187L9.11233 46.441L11.7596 49.0841L17.2905 43.5619C18.9568 41.8982 18.9568 39.2197 17.3023 37.5559Z"/>
  <path d="M0 0H5.53087L12.2081 15.9884L18.9326 0H24.428V22.8911H19.8426V8.92047L14.0517 22.8911H10.4117L4.58542 8.92047V22.8911H0V0Z"/>
  <path d="M26.7562 14.6433C26.7562 9.73465 30.3961 6.14758 35.4661 6.14758C40.5361 6.14758 44.176 9.74645 44.176 14.6433C44.176 19.5519 40.5361 23.1389 35.4661 23.1389C30.3843 23.1507 26.7562 19.5519 26.7562 14.6433ZM39.5906 14.6433C39.5906 11.894 37.9243 10.0296 35.4661 10.0296C33.0079 10.0296 31.3416 11.894 31.3416 14.6433C31.3416 17.3572 33.0079 19.2215 35.4661 19.2215C37.9124 19.2215 39.5906 17.3572 39.5906 14.6433Z"/>
  <path d="M46.0314 6.40717H50.6169V8.69629C51.5387 7.09155 53.3705 6.14758 55.6277 6.14758C59.3622 6.14758 61.7849 8.82608 61.7849 12.6255V22.8912H57.1995V13.6403C57.1995 11.6462 55.9232 10.2066 54.0205 10.2066C52.0232 10.2066 50.6169 11.7406 50.6169 13.8645V22.8912H46.0314V6.40717Z"/>
  <path d="M80.1266 17.2982C79.4767 20.8616 76.333 23.1507 72.2676 23.1507C66.6658 23.1507 63.7822 18.7731 63.7822 14.6197C63.7822 10.4308 66.3349 6.14758 71.9367 6.14758C77.763 6.14758 80.0912 10.4308 80.0912 14.1949C80.0912 14.8203 80.0557 15.304 80.0203 15.6698H68.1667C68.4976 17.9943 69.9631 19.4339 72.2558 19.4339C74.0876 19.4339 75.3049 18.7141 75.6594 17.31H80.1266V17.2982ZM68.2376 12.7789H75.5412C75.4112 10.95 74.1349 9.47506 71.9367 9.47506C69.8804 9.48686 68.6276 10.4898 68.2376 12.7789Z"/>
  <path d="M90.8929 22.8203L88.5765 29.5578H84.2157L86.6384 22.7495L80.6466 6.4071H85.3029L88.7656 17.0385L92.2047 6.4071H96.8847L90.8929 22.8203Z"/>
  <path d="M40.442 29.462V52.3414H35.502V42.7601H26.0712V52.3414H21.1548V29.462H26.0712V38.5477H35.502V29.462H40.442Z"/>
  <path d="M59.0788 46.752C58.4288 50.3155 55.2852 52.6046 51.2198 52.6046C45.618 52.6046 42.7344 48.227 42.7344 44.0735C42.7344 39.8847 45.2871 35.6014 50.8889 35.6014C56.7152 35.6014 59.0433 39.8847 59.0433 43.6487C59.0433 44.2741 59.0079 44.7579 58.9724 45.1237H47.1189C47.4498 47.4482 48.9152 48.8877 51.2079 48.8877C53.0398 48.8877 54.257 48.168 54.6116 46.7638H59.0788V46.752ZM47.1898 42.2446H54.4934C54.3634 40.4157 53.087 38.9407 50.8889 38.9407C48.8325 38.9407 47.5798 39.9555 47.1898 42.2446Z"/>
  <path d="M66.1817 28.7061H61.6318V52.3406H66.1817V28.7061Z"/>
  <path d="M69.1012 35.8728H73.6512V37.6664C74.6321 36.392 76.2748 35.6014 78.402 35.6014C83.0229 35.6014 85.9656 38.9643 85.9656 44.0971C85.9656 49.2299 82.7511 52.5928 78.012 52.5928C76.1448 52.5928 74.5375 51.9674 73.663 50.8583V59H69.113V35.8728H69.1012ZM81.4747 44.1089C81.4747 41.3242 79.832 39.4953 77.4448 39.4953C74.9866 39.4953 73.3793 41.3242 73.3793 44.1089C73.3793 46.8582 74.9866 48.6871 77.4448 48.6871C79.832 48.6871 81.4747 46.8582 81.4747 44.1089Z"/>
  <path d="M103.939 46.752C103.289 50.3155 100.145 52.6046 96.0801 52.6046C90.4783 52.6046 87.5947 48.227 87.5947 44.0735C87.5947 39.8847 90.1474 35.6014 95.7491 35.6014C101.575 35.6014 103.904 39.8847 103.904 43.6487C103.904 44.2741 103.868 44.7579 103.845 45.1237H91.9792C92.3101 47.4482 93.7755 48.8877 96.0682 48.8877C97.9 48.8877 99.1173 48.168 99.4718 46.7638H103.939V46.752ZM92.0501 42.2446H99.3537C99.2237 40.4157 97.9473 38.9407 95.7491 38.9407C93.681 38.9407 92.4401 39.9555 92.0501 42.2446Z"/>
  <path d="M114.282 39.6564C112.025 39.6564 111.008 41.5208 111.008 44.3291V52.341H106.423V35.8688H111.008V38.6181C111.895 36.5531 113.135 35.8688 115.133 35.8688H117V39.6564H114.282Z"/>
</svg>
