<svg xmlns="http://www.w3.org/2000/svg" viewBox="0 0 104 55" fill="#fff">
  <path d="M17.3252 39.3598L11.6654 33.7L8.64101 36.7243L12.3566 40.4399H8.33857C6.13511 40.4399 4.57973 38.7982 4.57973 36.4651V31.0645H0V37.07C0 41.5633 3.24038 44.7172 7.94973 44.7172H12.3566L8.64101 48.3897L11.6654 51.414L17.3252 45.7542C19.0966 43.9828 19.0966 41.1312 17.3252 39.3598Z"/>
  <path d="M19.8743 0.77771V24.3677H14.7761V14.4737H5.0982V24.3677H0.0432129V0.77771H5.0982V10.1532H14.8193V0.77771H19.8743Z"/>
  <path d="M39.0143 18.6213C38.323 22.2937 35.1258 24.67 30.9349 24.67C25.1887 24.67 22.2075 20.1335 22.2075 15.8562C22.2075 11.5357 24.843 7.12878 30.5893 7.12878C36.5948 7.12878 38.9711 11.5357 38.9711 15.4241C38.9711 16.0722 38.9279 16.5907 38.8847 16.9363H26.7008C27.0465 19.3126 28.5587 20.8248 30.9349 20.8248C32.836 20.8248 34.0889 20.0903 34.4345 18.6213H39.0143ZM26.7873 13.9552H34.3049C34.1753 12.0542 32.836 10.542 30.5893 10.542C28.4722 10.542 27.1761 11.5789 26.7873 13.9552Z"/>
  <path d="M41.1743 0H45.8405V24.3676H41.1743V0Z"/>
  <path d="M49.1672 7.38801H53.8334V9.24583C54.8271 7.94968 56.5121 7.12878 58.7155 7.12878C63.4681 7.12878 66.4925 10.5852 66.4925 15.8994C66.4925 21.2136 63.2089 24.6268 58.3267 24.6268C56.4257 24.6268 54.7407 23.9787 53.8334 22.8554V31.2372H49.1672V7.38801ZM61.9127 15.8562C61.9127 13.0047 60.2277 11.1036 57.765 11.1036C55.2159 11.1036 53.5741 13.0047 53.5741 15.8562C53.5741 18.7077 55.2159 20.5655 57.765 20.5655C60.2277 20.6088 61.9127 18.7077 61.9127 15.8562Z"/>
  <path d="M66.3628 7.38806H71.0721L73.9237 17.8869L76.9048 7.38806H81.1821L84.2065 17.8869L87.058 7.38806H91.7241L86.2371 24.3676H82.1326L79.0651 13.7824L75.9111 24.3676H71.8498L66.3628 7.38806Z"/>
  <path d="M101.273 11.2765C98.9396 11.2765 97.9027 13.1775 97.9027 16.1155V24.3676H93.1934V7.38806H97.9027V10.2396C98.81 8.12255 100.106 7.38806 102.137 7.38806H104.038V11.2765H101.273Z"/>
  <path d="M35.5145 49.5562H26.9599L25.1021 54.6976H19.8743L28.8177 31.1077H33.6567L42.6001 54.6976H37.3723L35.5145 49.5562ZM34.0023 45.3221L31.2804 37.6748L28.5153 45.3221H34.0023Z"/>
  <path d="M51.9324 41.6497C49.5993 41.6497 48.5624 43.5507 48.5624 46.4886V54.7408H43.853V37.7612H48.5624V40.6128C49.4697 38.4957 50.7658 37.7612 52.7965 37.7612H54.6975V41.6497H51.9324Z"/>
  <path d="M61.7401 30.3732V35.3417H56.7715V30.3732H61.7401ZM56.9011 37.7612H61.6105V54.7408H56.9011V37.7612Z"/>
  <path d="M78.8491 43.8099V54.7408H74.1829V52.3645C73.6213 53.9631 71.7202 55 69.3872 55C66.1036 55 63.8137 52.7965 63.8137 49.9018C63.8137 46.575 66.3196 44.5444 70.0352 44.5444H72.8868C73.7509 44.5444 74.1829 44.0259 74.1829 43.2914C74.1829 41.8657 73.0596 40.9151 71.1586 40.9151C69.0847 40.9151 68.0478 42.2113 68.0046 43.5939H63.8137C64.0297 40.1807 66.7949 37.4587 71.4178 37.4587C75.6951 37.4587 78.8491 39.9646 78.8491 43.8099ZM74.1829 47.7415V47.5255H70.7265C69.3008 47.5255 68.307 48.3896 68.307 49.729C68.307 50.8523 69.2576 51.63 70.5537 51.63C72.8868 51.5868 74.1829 49.9018 74.1829 47.7415Z"/>
  <path d="M81.355 37.7612H86.0643V40.1375C87.0148 38.4957 88.9159 37.502 91.2057 37.502C95.051 37.502 97.5569 40.2671 97.5569 44.1555V54.7408H92.8475V45.1924C92.8475 43.1186 91.5514 41.6496 89.5639 41.6496C87.4901 41.6496 86.0643 43.2482 86.0643 45.4085V54.6976H81.355V37.7612Z"/>
</svg>
